solid layers
  facet normal  -0.467086179481 0.809016994375 -0.356822089773
    outer loop
      vertex 0.241202265917 0.417774579468 0.631475730333
      vertex -0.207453559925 0.275765190107 0.896798222842
      vertex 0.262883051567 0.455326801763 0.688236764068
    endloop
  endfacet
  facet normal  -0.467086179481 0.809016994375 -0.356822089773
    outer loop
      vertex 0.262883051567 0.455326801763 0.688236764068
      vertex -0.207453559925 0.275765190107 0.896798222842
      vertex -0.185772774275 0.313317412402 0.953559256577
    endloop
  endfacet
  facet normal  -0.467086179481 0.809016994375 -0.356822089773
    outer loop
      vertex -0.13509288015 0.317542648054 0.896798222842
      vertex -0.482404531833 -2.22044604925e-17 0.631475730333
      vertex -0.17845445145 0.317542648054 0.953559256577
    endloop
  endfacet
  facet normal  -0.467086179481 0.809016994375 -0.356822089773
    outer loop
      vertex -0.17845445145 0.317542648054 0.953559256577
      vertex -0.482404531833 -2.22044604925e-17 0.631475730333
      vertex -0.525766103134 -2.62975611142e-17 0.688236764068
    endloop
  endfacet
  facet normal  -0.755761314076 0.309016994375 -0.57735026919
    outer loop
      vertex -0.482404531833 -2.22044604925e-17 0.631475730333
      vertex -0.615065778087 -0.513794797429 0.530131556175
      vertex -0.525766103134 -2.62975611142e-17 0.688236764068
    endloop
  endfacet
  facet normal  -0.755761314076 0.309016994375 -0.57735026919
    outer loop
      vertex -0.525766103134 -2.62975611142e-17 0.688236764068
      vertex -0.615065778087 -0.513794797429 0.530131556175
      vertex -0.658427349388 -0.513794797429 0.58689258991
    endloop
  endfacet
  facet normal  -0.755761314076 0.309016994375 -0.57735026919
    outer loop
      vertex -0.624278884829 -0.446197450508 0.578372009358
      vertex -0.390273464417 -0.675973469216 0.1490711985
      vertex -0.659359132914 -0.506958222533 0.591771471793
    endloop
  endfacet
  facet normal  -0.755761314076 0.309016994375 -0.57735026919
    outer loop
      vertex -0.659359132914 -0.506958222533 0.591771471793
      vertex -0.390273464417 -0.675973469216 0.1490711985
      vertex -0.425353712502 -0.736734241241 0.162470660935
    endloop
  endfacet
  facet normal  -0.178411044887 0.309016994375 0.934172358963
    outer loop
      vertex -0.390273464417 -0.675973469216 0.1490711985
      vertex -0.850891347371 -0.446197450508 -0.01490711985
      vertex -0.425353712502 -0.736734241241 0.162470660935
    endloop
  endfacet
  facet normal  -0.178411044887 0.309016994375 0.934172358963
    outer loop
      vertex -0.425353712502 -0.736734241241 0.162470660935
      vertex -0.850891347371 -0.446197450508 -0.01490711985
      vertex -0.885971595456 -0.506958222533 -0.00150765741535
    endloop
  endfacet
  facet normal  -0.178411044887 0.309016994375 0.934172358963
    outer loop
      vertex -0.811864000929 -0.513794797429 0.01490711985
      vertex -0.780546928833 -2.22044604925e-17 -0.1490711985
      vertex -0.882024497099 -0.513794797429 0.00150765741535
    endloop
  endfacet
  facet normal  -0.178411044887 0.309016994375 0.934172358963
    outer loop
      vertex -0.882024497099 -0.513794797429 0.00150765741535
      vertex -0.780546928833 -2.22044604925e-17 -0.1490711985
      vertex -0.850707425003 -2.22044604925e-17 -0.162470660935
    endloop
  endfacet
  facet normal  -0.110264089708 0.809016994375 0.57735026919
    outer loop
      vertex -0.780546928833 -2.22044604925e-17 -0.1490711985
      vertex -0.698557769658 0.317542648054 -0.578372009358
      vertex -0.850707425003 -2.22044604925e-17 -0.162470660935
    endloop
  endfacet
  facet normal  -0.110264089708 0.809016994375 0.57735026919
    outer loop
      vertex -0.850707425003 -2.22044604925e-17 -0.162470660935
      vertex -0.698557769658 0.317542648054 -0.578372009358
      vertex -0.768718265828 0.317542648054 -0.591771471793
    endloop
  endfacet
  facet normal  -0.110264089708 0.809016994375 0.57735026919
    outer loop
      vertex -0.75249223595 0.275765190107 -0.530131556175
      vertex -0.241202265917 0.417774579468 -0.631475730333
      vertex -0.7741730216 0.313317412402 -0.58689258991
    endloop
  endfacet
  facet normal  -0.110264089708 0.809016994375 0.57735026919
    outer loop
      vertex -0.7741730216 0.313317412402 -0.58689258991
      vertex -0.241202265917 0.417774579468 -0.631475730333
      vertex -0.262883051567 0.455326801763 -0.688236764068
    endloop
  endfacet
  facet normal  -0.866025403784 -0.5 -1.7981872169e-16
    outer loop
      vertex -0.241202265917 0.417774579468 -0.631475730333
      vertex -0.455852671346 0.789559987537 -0.303519093633
      vertex -0.262883051567 0.455326801763 -0.688236764068
    endloop
  endfacet
  facet normal  -0.866025403784 -0.5 -1.7981872169e-16
    outer loop
      vertex -0.262883051567 0.455326801763 -0.688236764068
      vertex -0.455852671346 0.789559987537 -0.303519093633
      vertex -0.477533456996 0.827112209831 -0.360280127368
    endloop
  endfacet
  facet normal  -0.866025403784 -0.5 1.46102711373e-16
    outer loop
      vertex -0.440945551496 0.763740098562 -0.381573786517
      vertex -0.390273464417 0.675973469216 0.1490711985
      vertex -0.476025799581 0.824500870587 -0.368174324082
    endloop
  endfacet
  facet normal  -0.866025403784 -0.5 1.46102711373e-16
    outer loop
      vertex -0.476025799581 0.824500870587 -0.368174324082
      vertex -0.390273464417 0.675973469216 0.1490711985
      vertex -0.425353712502 0.736734241241 0.162470660935
    endloop
  endfacet
  facet normal  0.356822089773 -2.24773402112e-17 0.934172358963
    outer loop
      vertex -0.390273464417 0.675973469216 0.1490711985
      vertex 0.0390273464417 0.959992247937 -0.01490711985
      vertex -0.425353712502 0.736734241241 0.162470660935
    endloop
  endfacet
  facet normal  0.356822089773 -2.24773402112e-17 0.934172358963
    outer loop
      vertex -0.425353712502 0.736734241241 0.162470660935
      vertex 0.0390273464417 0.959992247937 -0.01490711985
      vertex 0.00394709835678 1.02075301996 -0.00150765741535
    endloop
  endfacet
  facet normal  0.356822089773 1.57341381479e-16 0.934172358963
    outer loop
      vertex -0.0390273464417 0.959992247937 0.01490711985
      vertex 0.390273464417 0.675973469216 -0.1490711985
      vertex -0.00394709835678 1.02075301996 0.00150765741535
    endloop
  endfacet
  facet normal  0.356822089773 1.57341381479e-16 0.934172358963
    outer loop
      vertex -0.00394709835678 1.02075301996 0.00150765741535
      vertex 0.390273464417 0.675973469216 -0.1490711985
      vertex 0.425353712502 0.736734241241 -0.162470660935
    endloop
  endfacet
  facet normal  0.755761314076 -0.309016994375 0.57735026919
    outer loop
      vertex 0.390273464417 0.675973469216 -0.1490711985
      vertex 0.624278884829 0.446197450508 -0.578372009358
      vertex 0.425353712502 0.736734241241 -0.162470660935
    endloop
  endfacet
  facet normal  0.755761314076 -0.309016994375 0.57735026919
    outer loop
      vertex 0.425353712502 0.736734241241 -0.162470660935
      vertex 0.624278884829 0.446197450508 -0.578372009358
      vertex 0.659359132914 0.506958222533 -0.591771471793
    endloop
  endfacet
  facet normal  0.755761314076 -0.309016994375 0.57735026919
    outer loop
      vertex 0.615065778087 0.513794797429 -0.530131556175
      vertex 0.482404531833 0.0 -0.631475730333
      vertex 0.658427349388 0.513794797429 -0.58689258991
    endloop
  endfacet
  facet normal  0.755761314076 -0.309016994375 0.57735026919
    outer loop
      vertex 0.658427349388 0.513794797429 -0.58689258991
      vertex 0.482404531833 0.0 -0.631475730333
      vertex 0.525766103134 0.0 -0.688236764068
    endloop
  endfacet
  facet normal  0.467086179481 -0.809016994375 0.356822089773
    outer loop
      vertex 0.482404531833 0.0 -0.631475730333
      vertex 0.13509288015 -0.317542648054 -0.896798222842
      vertex 0.525766103134 0.0 -0.688236764068
    endloop
  endfacet
  facet normal  0.467086179481 -0.809016994375 0.356822089773
    outer loop
      vertex 0.525766103134 0.0 -0.688236764068
      vertex 0.13509288015 -0.317542648054 -0.896798222842
      vertex 0.17845445145 -0.317542648054 -0.953559256577
    endloop
  endfacet
  facet normal  0.467086179481 -0.809016994375 0.356822089773
    outer loop
      vertex 0.207453559925 -0.275765190107 -0.896798222842
      vertex -0.241202265917 -0.417774579468 -0.631475730333
      vertex 0.185772774275 -0.313317412402 -0.953559256577
    endloop
  endfacet
  facet normal  0.467086179481 -0.809016994375 0.356822089773
    outer loop
      vertex 0.185772774275 -0.313317412402 -0.953559256577
      vertex -0.241202265917 -0.417774579468 -0.631475730333
      vertex -0.262883051567 -0.455326801763 -0.688236764068
    endloop
  endfacet
  facet normal  0.645497224368 0.5 -0.57735026919
    outer loop
      vertex -0.241202265917 -0.417774579468 -0.631475730333
      vertex 0.137426457862 -0.789559987537 -0.530131556175
      vertex -0.262883051567 -0.455326801763 -0.688236764068
    endloop
  endfacet
  facet normal  0.645497224368 0.5 -0.57735026919
    outer loop
      vertex -0.262883051567 -0.455326801763 -0.688236764068
      vertex 0.137426457862 -0.789559987537 -0.530131556175
      vertex 0.115745672212 -0.827112209831 -0.58689258991
    endloop
  endfacet
  facet normal  0.645497224368 0.5 -0.57735026919
    outer loop
      vertex 0.0742788848291 -0.763740098562 -0.578372009358
      vertex 0.390273464417 -0.675973469216 -0.1490711985
      vertex 0.109359132914 -0.824500870587 -0.591771471793
    endloop
  endfacet
  facet normal  0.645497224368 0.5 -0.57735026919
    outer loop
      vertex 0.109359132914 -0.824500870587 -0.591771471793
      vertex 0.390273464417 -0.675973469216 -0.1490711985
      vertex 0.425353712502 -0.736734241241 -0.162470660935
    endloop
  endfacet
  facet normal  0.866025403784 0.5 -1.46102711373e-16
    outer loop
      vertex 0.390273464417 -0.675973469216 -0.1490711985
      vertex 0.440945551496 -0.763740098562 0.381573786517
      vertex 0.425353712502 -0.736734241241 -0.162470660935
    endloop
  endfacet
  facet normal  0.866025403784 0.5 -1.46102711373e-16
    outer loop
      vertex 0.425353712502 -0.736734241241 -0.162470660935
      vertex 0.440945551496 -0.763740098562 0.381573786517
      vertex 0.476025799581 -0.824500870587 0.368174324082
    endloop
  endfacet
  facet normal  0.866025403784 0.5 1.7981872169e-16
    outer loop
      vertex 0.455852671346 -0.789559987537 0.303519093633
      vertex 0.241202265917 -0.417774579468 0.631475730333
      vertex 0.477533456996 -0.827112209831 0.360280127368
    endloop
  endfacet
  facet normal  0.866025403784 0.5 1.7981872169e-16
    outer loop
      vertex 0.477533456996 -0.827112209831 0.360280127368
      vertex 0.241202265917 -0.417774579468 0.631475730333
      vertex 0.262883051567 -0.455326801763 0.688236764068
    endloop
  endfacet
  facet normal  0.110264089708 -0.809016994375 -0.57735026919
    outer loop
      vertex 0.241202265917 -0.417774579468 0.631475730333
      vertex 0.75249223595 -0.275765190107 0.530131556175
      vertex 0.262883051567 -0.455326801763 0.688236764068
    endloop
  endfacet
  facet normal  0.110264089708 -0.809016994375 -0.57735026919
    outer loop
      vertex 0.262883051567 -0.455326801763 0.688236764068
      vertex 0.75249223595 -0.275765190107 0.530131556175
      vertex 0.7741730216 -0.313317412402 0.58689258991
    endloop
  endfacet
  facet normal  0.110264089708 -0.809016994375 -0.57735026919
    outer loop
      vertex 0.698557769658 -0.317542648054 0.578372009358
      vertex 0.780546928833 0.0 0.1490711985
      vertex 0.768718265828 -0.317542648054 0.591771471793
    endloop
  endfacet
  facet normal  0.110264089708 -0.809016994375 -0.57735026919
    outer loop
      vertex 0.768718265828 -0.317542648054 0.591771471793
      vertex 0.780546928833 0.0 0.1490711985
      vertex 0.850707425003 8.18620124349e-18 0.162470660935
    endloop
  endfacet
  facet normal  0.110264089708 0.809016994375 -0.57735026919
    outer loop
      vertex 0.780546928833 0.0 0.1490711985
      vertex 0.698557769658 0.317542648054 0.578372009358
      vertex 0.850707425003 8.18620124349e-18 0.162470660935
    endloop
  endfacet
  facet normal  0.110264089708 0.809016994375 -0.57735026919
    outer loop
      vertex 0.850707425003 8.18620124349e-18 0.162470660935
      vertex 0.698557769658 0.317542648054 0.578372009358
      vertex 0.768718265828 0.317542648054 0.591771471793
    endloop
  endfacet
  facet normal  0.110264089708 0.809016994375 -0.57735026919
    outer loop
      vertex 0.75249223595 0.275765190107 0.530131556175
      vertex 0.241202265917 0.417774579468 0.631475730333
      vertex 0.7741730216 0.313317412402 0.58689258991
    endloop
  endfacet
  facet normal  0.110264089708 0.809016994375 -0.57735026919
    outer loop
      vertex 0.7741730216 0.313317412402 0.58689258991
      vertex 0.241202265917 0.417774579468 0.631475730333
      vertex 0.262883051567 0.455326801763 0.688236764068
    endloop
  endfacet
  facet normal  -0.467086179481 0.809016994375 -0.356822089773
    outer loop
      vertex 0.241202265917 0.417774579468 0.631475730333
      vertex -0.207453559925 0.275765190107 0.896798222842
      vertex 0.262883051567 0.455326801763 0.688236764068
    endloop
  endfacet
  facet normal  -0.467086179481 0.809016994375 -0.356822089773
    outer loop
      vertex 0.262883051567 0.455326801763 0.688236764068
      vertex -0.207453559925 0.275765190107 0.896798222842
      vertex -0.185772774275 0.313317412402 0.953559256577
    endloop
  endfacet
  facet normal  -0.467086179481 0.809016994375 -0.356822089773
    outer loop
      vertex -0.13509288015 0.317542648054 0.896798222842
      vertex -0.482404531833 -2.22044604925e-17 0.631475730333
      vertex -0.17845445145 0.317542648054 0.953559256577
    endloop
  endfacet
  facet normal  -0.467086179481 0.809016994375 -0.356822089773
    outer loop
      vertex -0.17845445145 0.317542648054 0.953559256577
      vertex -0.482404531833 -2.22044604925e-17 0.631475730333
      vertex -0.525766103134 -2.62975611142e-17 0.688236764068
    endloop
  endfacet
  facet normal 0.303530999103 0.525731112119 0.794654472292
    outer loop
        vertex -0.333333333333 0.57735026919 0.7453559925
        vertex 0.0 0.0 1.0
        vertex 0.666666666667 0.0 0.7453559925
    endloop
endfacet
facet normal 0.303530999103 0.525731112119 0.794654472292
    outer loop
        vertex -0.333333333333 0.57735026919 0.7453559925
        vertex 0.666666666667 0.0 0.7453559925
        vertex 0.7453559925 0.57735026919 0.333333333333
    endloop
endfacet
facet normal 0.303530999103 0.525731112119 0.794654472292
    outer loop
        vertex -0.333333333333 0.57735026919 0.7453559925
        vertex 0.7453559925 0.57735026919 0.333333333333
        vertex 0.12732200375 0.934172358963 0.333333333333
    endloop
endfacet
facet normal -0.607061998207 -2.91839392718e-17 0.794654472292
    outer loop
        vertex -0.333333333333 -0.57735026919 0.7453559925
        vertex 0.0 0.0 1.0
        vertex -0.333333333333 0.57735026919 0.7453559925
    endloop
endfacet
facet normal -0.607061998207 -2.91839392718e-17 0.794654472292
    outer loop
        vertex -0.333333333333 -0.57735026919 0.7453559925
        vertex -0.333333333333 0.57735026919 0.7453559925
        vertex -0.87267799625 0.356822089773 0.333333333333
    endloop
endfacet
facet normal -0.607061998207 0.0 0.794654472292
    outer loop
        vertex -0.333333333333 -0.57735026919 0.7453559925
        vertex -0.87267799625 0.356822089773 0.333333333333
        vertex -0.87267799625 -0.356822089773 0.333333333333
    endloop
endfacet
facet normal 0.303530999103 -0.525731112119 0.794654472292
    outer loop
        vertex 0.666666666667 0.0 0.7453559925
        vertex 0.0 0.0 1.0
        vertex -0.333333333333 -0.57735026919 0.7453559925
    endloop
endfacet
facet normal 0.303530999103 -0.525731112119 0.794654472292
    outer loop
        vertex 0.666666666667 0.0 0.7453559925
        vertex -0.333333333333 -0.57735026919 0.7453559925
        vertex 0.12732200375 -0.934172358963 0.333333333333
    endloop
endfacet
facet normal 0.303530999103 -0.525731112119 0.794654472292
    outer loop
        vertex 0.666666666667 0.0 0.7453559925
        vertex 0.12732200375 -0.934172358963 0.333333333333
        vertex 0.7453559925 -0.57735026919 0.333333333333
    endloop
endfacet
facet normal 0.982246946377 0.0 0.187592474085
    outer loop
        vertex 0.7453559925 0.57735026919 0.333333333333
        vertex 0.666666666667 0.0 0.7453559925
        vertex 0.7453559925 -0.57735026919 0.333333333333
    endloop
endfacet
facet normal 0.982246946377 0.0 0.187592474085
    outer loop
        vertex 0.7453559925 0.57735026919 0.333333333333
        vertex 0.7453559925 -0.57735026919 0.333333333333
        vertex 0.87267799625 -0.356822089773 -0.333333333333
    endloop
endfacet
facet normal 0.982246946377 0.0 0.187592474085
    outer loop
        vertex 0.7453559925 0.57735026919 0.333333333333
        vertex 0.87267799625 -0.356822089773 -0.333333333333
        vertex 0.87267799625 0.356822089773 -0.333333333333
    endloop
endfacet
facet normal -0.491123473188 0.850650808352 0.187592474085
    outer loop
        vertex -0.87267799625 0.356822089773 0.333333333333
        vertex -0.333333333333 0.57735026919 0.7453559925
        vertex 0.12732200375 0.934172358963 0.333333333333
    endloop
endfacet
facet normal -0.491123473188 0.850650808352 0.187592474085
    outer loop
        vertex -0.87267799625 0.356822089773 0.333333333333
        vertex 0.12732200375 0.934172358963 0.333333333333
        vertex -0.12732200375 0.934172358963 -0.333333333333
    endloop
endfacet
facet normal -0.491123473188 0.850650808352 0.187592474085
    outer loop
        vertex -0.87267799625 0.356822089773 0.333333333333
        vertex -0.12732200375 0.934172358963 -0.333333333333
        vertex -0.7453559925 0.57735026919 -0.333333333333
    endloop
endfacet
facet normal -0.491123473188 -0.850650808352 0.187592474085
    outer loop
        vertex 0.12732200375 -0.934172358963 0.333333333333
        vertex -0.333333333333 -0.57735026919 0.7453559925
        vertex -0.87267799625 -0.356822089773 0.333333333333
    endloop
endfacet
facet normal -0.491123473188 -0.850650808352 0.187592474085
    outer loop
        vertex 0.12732200375 -0.934172358963 0.333333333333
        vertex -0.87267799625 -0.356822089773 0.333333333333
        vertex -0.7453559925 -0.57735026919 -0.333333333333
    endloop
endfacet
facet normal -0.491123473188 -0.850650808352 0.187592474085
    outer loop
        vertex 0.12732200375 -0.934172358963 0.333333333333
        vertex -0.7453559925 -0.57735026919 -0.333333333333
        vertex -0.12732200375 -0.934172358963 -0.333333333333
    endloop
endfacet
facet normal -0.303530999103 -0.525731112119 -0.794654472292
    outer loop
        vertex -0.0 -0.0 -1.0
        vertex 0.333333333333 -0.57735026919 -0.7453559925
        vertex -0.12732200375 -0.934172358963 -0.333333333333
    endloop
endfacet
facet normal -0.303530999103 -0.525731112119 -0.794654472292
    outer loop
        vertex -0.0 -0.0 -1.0
        vertex -0.12732200375 -0.934172358963 -0.333333333333
        vertex -0.7453559925 -0.57735026919 -0.333333333333
    endloop
endfacet
facet normal -0.303530999103 -0.525731112119 -0.794654472292
    outer loop
        vertex -0.0 -0.0 -1.0
        vertex -0.7453559925 -0.57735026919 -0.333333333333
        vertex -0.666666666667 -0.0 -0.7453559925
    endloop
endfacet
facet normal 0.607061998207 0.0 -0.794654472292
    outer loop
        vertex -0.0 -0.0 -1.0
        vertex 0.333333333333 0.57735026919 -0.7453559925
        vertex 0.87267799625 0.356822089773 -0.333333333333
    endloop
endfacet
facet normal 0.607061998207 0.0 -0.794654472292
    outer loop
        vertex -0.0 -0.0 -1.0
        vertex 0.87267799625 0.356822089773 -0.333333333333
        vertex 0.87267799625 -0.356822089773 -0.333333333333
    endloop
endfacet
facet normal 0.607061998207 5.73034087044e-17 -0.794654472292
    outer loop
        vertex -0.0 -0.0 -1.0
        vertex 0.87267799625 -0.356822089773 -0.333333333333
        vertex 0.333333333333 -0.57735026919 -0.7453559925
    endloop
endfacet
facet normal -0.303530999103 0.525731112119 -0.794654472292
    outer loop
        vertex -0.0 -0.0 -1.0
        vertex -0.666666666667 -0.0 -0.7453559925
        vertex -0.7453559925 0.57735026919 -0.333333333333
    endloop
endfacet
facet normal -0.303530999103 0.525731112119 -0.794654472292
    outer loop
        vertex -0.0 -0.0 -1.0
        vertex -0.7453559925 0.57735026919 -0.333333333333
        vertex -0.12732200375 0.934172358963 -0.333333333333
    endloop
endfacet
facet normal -0.303530999103 0.525731112119 -0.794654472292
    outer loop
        vertex -0.0 -0.0 -1.0
        vertex -0.12732200375 0.934172358963 -0.333333333333
        vertex 0.333333333333 0.57735026919 -0.7453559925
    endloop
endfacet
facet normal -0.982246946377 1.14606817409e-16 -0.187592474085
    outer loop
        vertex -0.666666666667 -0.0 -0.7453559925
        vertex -0.7453559925 -0.57735026919 -0.333333333333
        vertex -0.87267799625 -0.356822089773 0.333333333333
    endloop
endfacet
facet normal -0.982246946377 0.0 -0.187592474085
    outer loop
        vertex -0.666666666667 -0.0 -0.7453559925
        vertex -0.87267799625 -0.356822089773 0.333333333333
        vertex -0.87267799625 0.356822089773 0.333333333333
    endloop
endfacet
facet normal -0.982246946377 -1.14606817409e-16 -0.187592474085
    outer loop
        vertex -0.666666666667 -0.0 -0.7453559925
        vertex -0.87267799625 0.356822089773 0.333333333333
        vertex -0.7453559925 0.57735026919 -0.333333333333
    endloop
endfacet
facet normal 0.491123473188 -0.850650808352 -0.187592474085
    outer loop
        vertex 0.333333333333 -0.57735026919 -0.7453559925
        vertex 0.87267799625 -0.356822089773 -0.333333333333
        vertex 0.7453559925 -0.57735026919 0.333333333333
    endloop
endfacet
facet normal 0.491123473188 -0.850650808352 -0.187592474085
    outer loop
        vertex 0.333333333333 -0.57735026919 -0.7453559925
        vertex 0.7453559925 -0.57735026919 0.333333333333
        vertex 0.12732200375 -0.934172358963 0.333333333333
    endloop
endfacet
facet normal 0.491123473188 -0.850650808352 -0.187592474085
    outer loop
        vertex 0.333333333333 -0.57735026919 -0.7453559925
        vertex 0.12732200375 -0.934172358963 0.333333333333
        vertex -0.12732200375 -0.934172358963 -0.333333333333
    endloop
endfacet
facet normal 0.491123473188 0.850650808352 -0.187592474085
    outer loop
        vertex 0.333333333333 0.57735026919 -0.7453559925
        vertex -0.12732200375 0.934172358963 -0.333333333333
        vertex 0.12732200375 0.934172358963 0.333333333333
    endloop
endfacet
facet normal 0.491123473188 0.850650808352 -0.187592474085
    outer loop
        vertex 0.333333333333 0.57735026919 -0.7453559925
        vertex 0.12732200375 0.934172358963 0.333333333333
        vertex 0.7453559925 0.57735026919 0.333333333333
    endloop
endfacet
facet normal 0.491123473188 0.850650808352 -0.187592474085
    outer loop
        vertex 0.333333333333 0.57735026919 -0.7453559925
        vertex 0.7453559925 0.57735026919 0.333333333333
        vertex 0.87267799625 0.356822089773 -0.333333333333
    endloop
endfacet
endsolid surface
