solid layers
  facet normal  -0.467086179481 0.809016994375 -0.356822089773
    outer loop
      vertex 0.241202265917 0.417774579468 0.631475730333
      vertex -0.166666666667 0.288675134595 0.87267799625
      vertex 0.271555365827 0.47034769068 0.710941177562
    endloop
  endfacet
  facet normal  -0.467086179481 0.809016994375 -0.356822089773
    outer loop
      vertex 0.271555365827 0.47034769068 0.710941177562
      vertex -0.166666666667 0.288675134595 0.87267799625
      vertex -0.136313566756 0.341248245807 0.952143443479
    endloop
  endfacet
  facet normal  0.866025403784 0.5 -1.05964603853e-16
    outer loop
      vertex 0.390273464417 -0.675973469216 -0.1490711985
      vertex 0.436338998125 -0.755761314076 0.333333333333
      vertex 0.439385811735 -0.761038550051 -0.167830445908
    endloop
  endfacet
  facet normal  0.866025403784 0.5 -1.05964603853e-16
    outer loop
      vertex 0.439385811735 -0.761038550051 -0.167830445908
      vertex 0.436338998125 -0.755761314076 0.333333333333
      vertex 0.485451345444 -0.840826394911 0.314574085925
    endloop
  endfacet
  facet normal  -0.467086179481 -0.809016994375 -0.356822089773
    outer loop
      vertex -0.482404531833 -2.22044604925e-17 0.631475730333
      vertex -0.166666666667 -0.288675134595 0.87267799625
      vertex -0.543110731654 -2.79348013629e-17 0.710941177562
    endloop
  endfacet
  facet normal  -0.467086179481 -0.809016994375 -0.356822089773
    outer loop
      vertex -0.543110731654 -2.79348013629e-17 0.710941177562
      vertex -0.166666666667 -0.288675134595 0.87267799625
      vertex -0.227372866487 -0.288675134595 0.952143443479
    endloop
  endfacet
  facet normal  0.866025403784 0.5 -1.05964603853e-16
    outer loop
      vertex 0.390273464417 -0.675973469216 -0.1490711985
      vertex 0.436338998125 -0.755761314076 0.333333333333
      vertex 0.439385811735 -0.761038550051 -0.167830445908
    endloop
  endfacet
  facet normal  0.866025403784 0.5 -1.05964603853e-16
    outer loop
      vertex 0.439385811735 -0.761038550051 -0.167830445908
      vertex 0.436338998125 -0.755761314076 0.333333333333
      vertex 0.485451345444 -0.840826394911 0.314574085925
    endloop
  endfacet
  facet normal  -0.866025403784 -0.5 -1.76607673088e-16
    outer loop
      vertex 0.241202265917 -0.417774579468 0.631475730333
      vertex 0.436338998125 -0.755761314076 0.333333333333
      vertex 0.271555365827 -0.47034769068 0.710941177562
    endloop
  endfacet
  facet normal  -0.866025403784 -0.5 -1.76607673088e-16
    outer loop
      vertex 0.271555365827 -0.47034769068 0.710941177562
      vertex 0.436338998125 -0.755761314076 0.333333333333
      vertex 0.466692098035 -0.808334425288 0.412798780563
    endloop
  endfacet
  facet normal  0.866025403784 0.5 -1.05964603853e-16
    outer loop
      vertex 0.390273464417 -0.675973469216 -0.1490711985
      vertex 0.436338998125 -0.755761314076 0.333333333333
      vertex 0.439385811735 -0.761038550051 -0.167830445908
    endloop
  endfacet
  facet normal  0.866025403784 0.5 -1.05964603853e-16
    outer loop
      vertex 0.439385811735 -0.761038550051 -0.167830445908
      vertex 0.436338998125 -0.755761314076 0.333333333333
      vertex 0.485451345444 -0.840826394911 0.314574085925
    endloop
  endfacet
  facet normal  0.356822089773 -1.76607673088e-16 0.934172358963
    outer loop
      vertex 0.390273464417 -0.675973469216 -0.1490711985
      vertex 2.77555756156e-17 -0.934172358963 0.0
      vertex 0.439385811735 -0.761038550051 -0.167830445908
    endloop
  endfacet
  facet normal  0.356822089773 -1.76607673088e-16 0.934172358963
    outer loop
      vertex 0.439385811735 -0.761038550051 -0.167830445908
      vertex 2.77555756156e-17 -0.934172358963 0.0
      vertex 0.0491123473188 -1.0192374398 -0.0187592474085
    endloop
  endfacet
  facet normal  0.866025403784 0.5 -1.05964603853e-16
    outer loop
      vertex 0.390273464417 -0.675973469216 -0.1490711985
      vertex 0.436338998125 -0.755761314076 0.333333333333
      vertex 0.439385811735 -0.761038550051 -0.167830445908
    endloop
  endfacet
  facet normal  0.866025403784 0.5 -1.05964603853e-16
    outer loop
      vertex 0.439385811735 -0.761038550051 -0.167830445908
      vertex 0.436338998125 -0.755761314076 0.333333333333
      vertex 0.485451345444 -0.840826394911 0.314574085925
    endloop
  endfacet
  facet normal  -0.178411044887 0.309016994375 0.934172358963
    outer loop
      vertex -0.390273464417 -0.675973469216 0.1490711985
      vertex -0.809016994375 -0.467086179481 0.0
      vertex -0.439385811735 -0.761038550051 0.167830445908
    endloop
  endfacet
  facet normal  -0.178411044887 0.309016994375 0.934172358963
    outer loop
      vertex -0.439385811735 -0.761038550051 0.167830445908
      vertex -0.809016994375 -0.467086179481 0.0
      vertex -0.858129341694 -0.552151260317 0.0187592474085
    endloop
  endfacet
  facet normal  0.866025403784 0.5 -1.05964603853e-16
    outer loop
      vertex 0.390273464417 -0.675973469216 -0.1490711985
      vertex 0.436338998125 -0.755761314076 0.333333333333
      vertex 0.439385811735 -0.761038550051 -0.167830445908
    endloop
  endfacet
  facet normal  0.866025403784 0.5 -1.05964603853e-16
    outer loop
      vertex 0.439385811735 -0.761038550051 -0.167830445908
      vertex 0.436338998125 -0.755761314076 0.333333333333
      vertex 0.485451345444 -0.840826394911 0.314574085925
    endloop
  endfacet
  facet normal  -0.178411044887 -0.309016994375 0.934172358963
    outer loop
      vertex -0.780546928833 -2.22044604925e-17 -0.1490711985
      vertex -0.809016994375 0.467086179481 0.0
      vertex -0.878771623471 -2.22044604925e-17 -0.167830445908
    endloop
  endfacet
  facet normal  -0.178411044887 -0.309016994375 0.934172358963
    outer loop
      vertex -0.878771623471 -2.22044604925e-17 -0.167830445908
      vertex -0.809016994375 0.467086179481 0.0
      vertex -0.907241689013 0.467086179481 -0.0187592474085
    endloop
  endfacet
  facet normal  0.866025403784 0.5 -1.05964603853e-16
    outer loop
      vertex 0.390273464417 -0.675973469216 -0.1490711985
      vertex 0.436338998125 -0.755761314076 0.333333333333
      vertex 0.439385811735 -0.761038550051 -0.167830445908
    endloop
  endfacet
  facet normal  0.866025403784 0.5 -1.05964603853e-16
    outer loop
      vertex 0.439385811735 -0.761038550051 -0.167830445908
      vertex 0.436338998125 -0.755761314076 0.333333333333
      vertex 0.485451345444 -0.840826394911 0.314574085925
    endloop
  endfacet
  facet normal  0.356822089773 2.29589975015e-16 0.934172358963
    outer loop
      vertex -0.390273464417 0.675973469216 0.1490711985
      vertex -2.77555756156e-17 0.934172358963 0.0
      vertex -0.439385811735 0.761038550051 0.167830445908
    endloop
  endfacet
  facet normal  0.356822089773 2.29589975015e-16 0.934172358963
    outer loop
      vertex -0.439385811735 0.761038550051 0.167830445908
      vertex -2.77555756156e-17 0.934172358963 0.0
      vertex -0.0491123473188 1.0192374398 0.0187592474085
    endloop
  endfacet
  facet normal  0.866025403784 0.5 -1.05964603853e-16
    outer loop
      vertex 0.390273464417 -0.675973469216 -0.1490711985
      vertex 0.436338998125 -0.755761314076 0.333333333333
      vertex 0.439385811735 -0.761038550051 -0.167830445908
    endloop
  endfacet
  facet normal  0.866025403784 0.5 -1.05964603853e-16
    outer loop
      vertex 0.439385811735 -0.761038550051 -0.167830445908
      vertex 0.436338998125 -0.755761314076 0.333333333333
      vertex 0.485451345444 -0.840826394911 0.314574085925
    endloop
  endfacet
  facet normal  0.645497224368 -0.5 -0.57735026919
    outer loop
      vertex 0.390273464417 0.675973469216 -0.1490711985
      vertex 0.103005664792 0.755761314076 -0.539344662917
      vertex 0.439385811735 0.761038550051 -0.167830445908
    endloop
  endfacet
  facet normal  0.645497224368 -0.5 -0.57735026919
    outer loop
      vertex 0.439385811735 0.761038550051 -0.167830445908
      vertex 0.103005664792 0.755761314076 -0.539344662917
      vertex 0.15211801211 0.840826394911 -0.558103910325
    endloop
  endfacet
  facet normal  0.866025403784 0.5 -1.05964603853e-16
    outer loop
      vertex 0.390273464417 -0.675973469216 -0.1490711985
      vertex 0.436338998125 -0.755761314076 0.333333333333
      vertex 0.439385811735 -0.761038550051 -0.167830445908
    endloop
  endfacet
  facet normal  0.866025403784 0.5 -1.05964603853e-16
    outer loop
      vertex 0.439385811735 -0.761038550051 -0.167830445908
      vertex 0.436338998125 -0.755761314076 0.333333333333
      vertex 0.485451345444 -0.840826394911 0.314574085925
    endloop
  endfacet
  facet normal  0.934172358963 1.76607673088e-17 -0.356822089773
    outer loop
      vertex -0.241202265917 0.417774579468 -0.631475730333
      vertex -0.333333333333 -0.0 -0.87267799625
      vertex -0.271555365827 0.47034769068 -0.710941177562
    endloop
  endfacet
  facet normal  0.934172358963 1.76607673088e-17 -0.356822089773
    outer loop
      vertex -0.271555365827 0.47034769068 -0.710941177562
      vertex -0.333333333333 -0.0 -0.87267799625
      vertex -0.363686433244 0.0525731112119 -0.952143443479
    endloop
  endfacet
  facet normal  0.866025403784 0.5 -1.05964603853e-16
    outer loop
      vertex 0.390273464417 -0.675973469216 -0.1490711985
      vertex 0.436338998125 -0.755761314076 0.333333333333
      vertex 0.439385811735 -0.761038550051 -0.167830445908
    endloop
  endfacet
  facet normal  0.866025403784 0.5 -1.05964603853e-16
    outer loop
      vertex 0.439385811735 -0.761038550051 -0.167830445908
      vertex 0.436338998125 -0.755761314076 0.333333333333
      vertex 0.485451345444 -0.840826394911 0.314574085925
    endloop
  endfacet
  facet normal  -0.467086179481 0.809016994375 -0.356822089773
    outer loop
      vertex -0.241202265917 -0.417774579468 -0.631475730333
      vertex 0.166666666667 -0.288675134595 -0.87267799625
      vertex -0.271555365827 -0.47034769068 -0.710941177562
    endloop
  endfacet
  facet normal  -0.467086179481 0.809016994375 -0.356822089773
    outer loop
      vertex -0.271555365827 -0.47034769068 -0.710941177562
      vertex 0.166666666667 -0.288675134595 -0.87267799625
      vertex 0.136313566756 -0.341248245807 -0.952143443479
    endloop
  endfacet
  facet normal  0.866025403784 0.5 -1.05964603853e-16
    outer loop
      vertex 0.390273464417 -0.675973469216 -0.1490711985
      vertex 0.436338998125 -0.755761314076 0.333333333333
      vertex 0.439385811735 -0.761038550051 -0.167830445908
    endloop
  endfacet
  facet normal  0.866025403784 0.5 -1.05964603853e-16
    outer loop
      vertex 0.439385811735 -0.761038550051 -0.167830445908
      vertex 0.436338998125 -0.755761314076 0.333333333333
      vertex 0.485451345444 -0.840826394911 0.314574085925
    endloop
  endfacet
  facet normal  -4.49094647234e-17 1.0 -3.43077782156e-17
    outer loop
      vertex 0.482404531833 0.0 -0.631475730333
      vertex 0.87267799625 2.77555756156e-17 -0.333333333333
      vertex 0.543110731654 0.0 -0.710941177562
    endloop
  endfacet
  facet normal  -4.49094647234e-17 1.0 -3.43077782156e-17
    outer loop
      vertex 0.543110731654 0.0 -0.710941177562
      vertex 0.87267799625 2.77555756156e-17 -0.333333333333
      vertex 0.933384196071 2.77555756156e-17 -0.412798780563
    endloop
  endfacet
  facet normal  0.866025403784 0.5 -1.05964603853e-16
    outer loop
      vertex 0.390273464417 -0.675973469216 -0.1490711985
      vertex 0.436338998125 -0.755761314076 0.333333333333
      vertex 0.439385811735 -0.761038550051 -0.167830445908
    endloop
  endfacet
  facet normal  0.866025403784 0.5 -1.05964603853e-16
    outer loop
      vertex 0.439385811735 -0.761038550051 -0.167830445908
      vertex 0.436338998125 -0.755761314076 0.333333333333
      vertex 0.485451345444 -0.840826394911 0.314574085925
    endloop
  endfacet
  facet normal  0.110264089708 0.809016994375 -0.57735026919
    outer loop
      vertex 0.780546928833 0.0 0.1490711985
      vertex 0.706011329583 0.288675134595 0.539344662917
      vertex 0.878771623471 1.14606817409e-17 0.167830445908
    endloop
  endfacet
  facet normal  0.110264089708 0.809016994375 -0.57735026919
    outer loop
      vertex 0.878771623471 1.14606817409e-17 0.167830445908
      vertex 0.706011329583 0.288675134595 0.539344662917
      vertex 0.804236024221 0.288675134595 0.558103910325
    endloop
  endfacet
  facet normal  0.866025403784 0.5 -1.05964603853e-16
    outer loop
      vertex 0.390273464417 -0.675973469216 -0.1490711985
      vertex 0.436338998125 -0.755761314076 0.333333333333
      vertex 0.439385811735 -0.761038550051 -0.167830445908
    endloop
  endfacet
  facet normal  0.866025403784 0.5 -1.05964603853e-16
    outer loop
      vertex 0.439385811735 -0.761038550051 -0.167830445908
      vertex 0.436338998125 -0.755761314076 0.333333333333
      vertex 0.485451345444 -0.840826394911 0.314574085925
    endloop
  endfacet
  facet normal  -0.467086179481 0.809016994375 -0.356822089773
    outer loop
      vertex 0.241202265917 0.417774579468 0.631475730333
      vertex -0.166666666667 0.288675134595 0.87267799625
      vertex 0.271555365827 0.47034769068 0.710941177562
    endloop
  endfacet
  facet normal  -0.467086179481 0.809016994375 -0.356822089773
    outer loop
      vertex 0.271555365827 0.47034769068 0.710941177562
      vertex -0.166666666667 0.288675134595 0.87267799625
      vertex -0.136313566756 0.341248245807 0.952143443479
    endloop
  endfacet
  facet normal  0.866025403784 0.5 -1.05964603853e-16
    outer loop
      vertex 0.390273464417 -0.675973469216 -0.1490711985
      vertex 0.436338998125 -0.755761314076 0.333333333333
      vertex 0.439385811735 -0.761038550051 -0.167830445908
    endloop
  endfacet
  facet normal  0.866025403784 0.5 -1.05964603853e-16
    outer loop
      vertex 0.439385811735 -0.761038550051 -0.167830445908
      vertex 0.436338998125 -0.755761314076 0.333333333333
      vertex 0.485451345444 -0.840826394911 0.314574085925
    endloop
  endfacet
  facet normal 0.303530999103 0.525731112119 0.794654472292
    outer loop
        vertex -0.333333333333 0.57735026919 0.7453559925
        vertex 0.0 0.0 1.0
        vertex 0.666666666667 0.0 0.7453559925
    endloop
endfacet
facet normal 0.303530999103 0.525731112119 0.794654472292
    outer loop
        vertex -0.333333333333 0.57735026919 0.7453559925
        vertex 0.666666666667 0.0 0.7453559925
        vertex 0.7453559925 0.57735026919 0.333333333333
    endloop
endfacet
facet normal 0.303530999103 0.525731112119 0.794654472292
    outer loop
        vertex -0.333333333333 0.57735026919 0.7453559925
        vertex 0.7453559925 0.57735026919 0.333333333333
        vertex 0.12732200375 0.934172358963 0.333333333333
    endloop
endfacet
facet normal -0.607061998207 -2.91839392718e-17 0.794654472292
    outer loop
        vertex -0.333333333333 -0.57735026919 0.7453559925
        vertex 0.0 0.0 1.0
        vertex -0.333333333333 0.57735026919 0.7453559925
    endloop
endfacet
facet normal -0.607061998207 -2.91839392718e-17 0.794654472292
    outer loop
        vertex -0.333333333333 -0.57735026919 0.7453559925
        vertex -0.333333333333 0.57735026919 0.7453559925
        vertex -0.87267799625 0.356822089773 0.333333333333
    endloop
endfacet
facet normal -0.607061998207 0.0 0.794654472292
    outer loop
        vertex -0.333333333333 -0.57735026919 0.7453559925
        vertex -0.87267799625 0.356822089773 0.333333333333
        vertex -0.87267799625 -0.356822089773 0.333333333333
    endloop
endfacet
facet normal 0.303530999103 -0.525731112119 0.794654472292
    outer loop
        vertex 0.666666666667 0.0 0.7453559925
        vertex 0.0 0.0 1.0
        vertex -0.333333333333 -0.57735026919 0.7453559925
    endloop
endfacet
facet normal 0.303530999103 -0.525731112119 0.794654472292
    outer loop
        vertex 0.666666666667 0.0 0.7453559925
        vertex -0.333333333333 -0.57735026919 0.7453559925
        vertex 0.12732200375 -0.934172358963 0.333333333333
    endloop
endfacet
facet normal 0.303530999103 -0.525731112119 0.794654472292
    outer loop
        vertex 0.666666666667 0.0 0.7453559925
        vertex 0.12732200375 -0.934172358963 0.333333333333
        vertex 0.7453559925 -0.57735026919 0.333333333333
    endloop
endfacet
facet normal 0.982246946377 0.0 0.187592474085
    outer loop
        vertex 0.7453559925 0.57735026919 0.333333333333
        vertex 0.666666666667 0.0 0.7453559925
        vertex 0.7453559925 -0.57735026919 0.333333333333
    endloop
endfacet
facet normal 0.982246946377 0.0 0.187592474085
    outer loop
        vertex 0.7453559925 0.57735026919 0.333333333333
        vertex 0.7453559925 -0.57735026919 0.333333333333
        vertex 0.87267799625 -0.356822089773 -0.333333333333
    endloop
endfacet
facet normal 0.982246946377 0.0 0.187592474085
    outer loop
        vertex 0.7453559925 0.57735026919 0.333333333333
        vertex 0.87267799625 -0.356822089773 -0.333333333333
        vertex 0.87267799625 0.356822089773 -0.333333333333
    endloop
endfacet
facet normal -0.491123473188 0.850650808352 0.187592474085
    outer loop
        vertex -0.87267799625 0.356822089773 0.333333333333
        vertex -0.333333333333 0.57735026919 0.7453559925
        vertex 0.12732200375 0.934172358963 0.333333333333
    endloop
endfacet
facet normal -0.491123473188 0.850650808352 0.187592474085
    outer loop
        vertex -0.87267799625 0.356822089773 0.333333333333
        vertex 0.12732200375 0.934172358963 0.333333333333
        vertex -0.12732200375 0.934172358963 -0.333333333333
    endloop
endfacet
facet normal -0.491123473188 0.850650808352 0.187592474085
    outer loop
        vertex -0.87267799625 0.356822089773 0.333333333333
        vertex -0.12732200375 0.934172358963 -0.333333333333
        vertex -0.7453559925 0.57735026919 -0.333333333333
    endloop
endfacet
facet normal -0.491123473188 -0.850650808352 0.187592474085
    outer loop
        vertex 0.12732200375 -0.934172358963 0.333333333333
        vertex -0.333333333333 -0.57735026919 0.7453559925
        vertex -0.87267799625 -0.356822089773 0.333333333333
    endloop
endfacet
facet normal -0.491123473188 -0.850650808352 0.187592474085
    outer loop
        vertex 0.12732200375 -0.934172358963 0.333333333333
        vertex -0.87267799625 -0.356822089773 0.333333333333
        vertex -0.7453559925 -0.57735026919 -0.333333333333
    endloop
endfacet
facet normal -0.491123473188 -0.850650808352 0.187592474085
    outer loop
        vertex 0.12732200375 -0.934172358963 0.333333333333
        vertex -0.7453559925 -0.57735026919 -0.333333333333
        vertex -0.12732200375 -0.934172358963 -0.333333333333
    endloop
endfacet
facet normal -0.303530999103 -0.525731112119 -0.794654472292
    outer loop
        vertex -0.0 -0.0 -1.0
        vertex 0.333333333333 -0.57735026919 -0.7453559925
        vertex -0.12732200375 -0.934172358963 -0.333333333333
    endloop
endfacet
facet normal -0.303530999103 -0.525731112119 -0.794654472292
    outer loop
        vertex -0.0 -0.0 -1.0
        vertex -0.12732200375 -0.934172358963 -0.333333333333
        vertex -0.7453559925 -0.57735026919 -0.333333333333
    endloop
endfacet
facet normal -0.303530999103 -0.525731112119 -0.794654472292
    outer loop
        vertex -0.0 -0.0 -1.0
        vertex -0.7453559925 -0.57735026919 -0.333333333333
        vertex -0.666666666667 -0.0 -0.7453559925
    endloop
endfacet
facet normal 0.607061998207 0.0 -0.794654472292
    outer loop
        vertex -0.0 -0.0 -1.0
        vertex 0.333333333333 0.57735026919 -0.7453559925
        vertex 0.87267799625 0.356822089773 -0.333333333333
    endloop
endfacet
facet normal 0.607061998207 0.0 -0.794654472292
    outer loop
        vertex -0.0 -0.0 -1.0
        vertex 0.87267799625 0.356822089773 -0.333333333333
        vertex 0.87267799625 -0.356822089773 -0.333333333333
    endloop
endfacet
facet normal 0.607061998207 5.73034087044e-17 -0.794654472292
    outer loop
        vertex -0.0 -0.0 -1.0
        vertex 0.87267799625 -0.356822089773 -0.333333333333
        vertex 0.333333333333 -0.57735026919 -0.7453559925
    endloop
endfacet
facet normal -0.303530999103 0.525731112119 -0.794654472292
    outer loop
        vertex -0.0 -0.0 -1.0
        vertex -0.666666666667 -0.0 -0.7453559925
        vertex -0.7453559925 0.57735026919 -0.333333333333
    endloop
endfacet
facet normal -0.303530999103 0.525731112119 -0.794654472292
    outer loop
        vertex -0.0 -0.0 -1.0
        vertex -0.7453559925 0.57735026919 -0.333333333333
        vertex -0.12732200375 0.934172358963 -0.333333333333
    endloop
endfacet
facet normal -0.303530999103 0.525731112119 -0.794654472292
    outer loop
        vertex -0.0 -0.0 -1.0
        vertex -0.12732200375 0.934172358963 -0.333333333333
        vertex 0.333333333333 0.57735026919 -0.7453559925
    endloop
endfacet
facet normal -0.982246946377 1.14606817409e-16 -0.187592474085
    outer loop
        vertex -0.666666666667 -0.0 -0.7453559925
        vertex -0.7453559925 -0.57735026919 -0.333333333333
        vertex -0.87267799625 -0.356822089773 0.333333333333
    endloop
endfacet
facet normal -0.982246946377 0.0 -0.187592474085
    outer loop
        vertex -0.666666666667 -0.0 -0.7453559925
        vertex -0.87267799625 -0.356822089773 0.333333333333
        vertex -0.87267799625 0.356822089773 0.333333333333
    endloop
endfacet
facet normal -0.982246946377 -1.14606817409e-16 -0.187592474085
    outer loop
        vertex -0.666666666667 -0.0 -0.7453559925
        vertex -0.87267799625 0.356822089773 0.333333333333
        vertex -0.7453559925 0.57735026919 -0.333333333333
    endloop
endfacet
facet normal 0.491123473188 -0.850650808352 -0.187592474085
    outer loop
        vertex 0.333333333333 -0.57735026919 -0.7453559925
        vertex 0.87267799625 -0.356822089773 -0.333333333333
        vertex 0.7453559925 -0.57735026919 0.333333333333
    endloop
endfacet
facet normal 0.491123473188 -0.850650808352 -0.187592474085
    outer loop
        vertex 0.333333333333 -0.57735026919 -0.7453559925
        vertex 0.7453559925 -0.57735026919 0.333333333333
        vertex 0.12732200375 -0.934172358963 0.333333333333
    endloop
endfacet
facet normal 0.491123473188 -0.850650808352 -0.187592474085
    outer loop
        vertex 0.333333333333 -0.57735026919 -0.7453559925
        vertex 0.12732200375 -0.934172358963 0.333333333333
        vertex -0.12732200375 -0.934172358963 -0.333333333333
    endloop
endfacet
facet normal 0.491123473188 0.850650808352 -0.187592474085
    outer loop
        vertex 0.333333333333 0.57735026919 -0.7453559925
        vertex -0.12732200375 0.934172358963 -0.333333333333
        vertex 0.12732200375 0.934172358963 0.333333333333
    endloop
endfacet
facet normal 0.491123473188 0.850650808352 -0.187592474085
    outer loop
        vertex 0.333333333333 0.57735026919 -0.7453559925
        vertex 0.12732200375 0.934172358963 0.333333333333
        vertex 0.7453559925 0.57735026919 0.333333333333
    endloop
endfacet
facet normal 0.491123473188 0.850650808352 -0.187592474085
    outer loop
        vertex 0.333333333333 0.57735026919 -0.7453559925
        vertex 0.7453559925 0.57735026919 0.333333333333
        vertex 0.87267799625 0.356822089773 -0.333333333333
    endloop
endfacet
endsolid surface