solid layers
  facet normal  -0.467086179481 0.809016994375 -0.356822089773
    outer loop
      vertex 0.241202265917 0.417774579468 0.631475730333
      vertex -0.166666666667 0.288675134595 0.87267799625
      vertex 0.271555365827 0.47034769068 0.710941177562
    endloop
  endfacet
  facet normal  -0.467086179481 0.809016994375 -0.356822089773
    outer loop
      vertex 0.271555365827 0.47034769068 0.710941177562
      vertex -0.166666666667 0.288675134595 0.87267799625
      vertex -0.136313566756 0.341248245807 0.952143443479
    endloop
  endfacet
  facet normal  -0.467086179481 0.809016994375 -0.356822089773
    outer loop
      vertex -0.166666666667 0.288675134595 0.87267799625
      vertex -0.482404531833 -2.22044604925e-17 0.631475730333
      vertex -0.227372866487 0.288675134595 0.952143443479
    endloop
  endfacet
  facet normal  -0.467086179481 0.809016994375 -0.356822089773
    outer loop
      vertex -0.227372866487 0.288675134595 0.952143443479
      vertex -0.482404531833 -2.22044604925e-17 0.631475730333
      vertex -0.543110731654 -2.79348013629e-17 0.710941177562
    endloop
  endfacet
  facet normal  -0.755761314076 0.309016994375 -0.57735026919
    outer loop
      vertex -0.482404531833 -2.22044604925e-17 0.631475730333
      vertex -0.603005664792 -0.467086179481 0.539344662917
      vertex -0.543110731654 -2.79348013629e-17 0.710941177562
    endloop
  endfacet
  facet normal  -0.755761314076 0.309016994375 -0.57735026919
    outer loop
      vertex -0.543110731654 -2.79348013629e-17 0.710941177562
      vertex -0.603005664792 -0.467086179481 0.539344662917
      vertex -0.663711864612 -0.467086179481 0.618810110146
    endloop
  endfacet
  facet normal  -0.755761314076 0.309016994375 -0.57735026919
    outer loop
      vertex -0.603005664792 -0.467086179481 0.539344662917
      vertex -0.390273464417 -0.675973469216 0.1490711985
      vertex -0.65211801211 -0.552151260317 0.558103910325
    endloop
  endfacet
  facet normal  -0.755761314076 0.309016994375 -0.57735026919
    outer loop
      vertex -0.65211801211 -0.552151260317 0.558103910325
      vertex -0.390273464417 -0.675973469216 0.1490711985
      vertex -0.439385811735 -0.761038550051 0.167830445908
    endloop
  endfacet
  facet normal  -0.178411044887 0.309016994375 0.934172358963
    outer loop
      vertex -0.390273464417 -0.675973469216 0.1490711985
      vertex -0.809016994375 -0.467086179481 0.0
      vertex -0.439385811735 -0.761038550051 0.167830445908
    endloop
  endfacet
  facet normal  -0.178411044887 0.309016994375 0.934172358963
    outer loop
      vertex -0.439385811735 -0.761038550051 0.167830445908
      vertex -0.809016994375 -0.467086179481 0.0
      vertex -0.858129341694 -0.552151260317 0.0187592474085
    endloop
  endfacet
  facet normal  -0.178411044887 0.309016994375 0.934172358963
    outer loop
      vertex -0.809016994375 -0.467086179481 0.0
      vertex -0.780546928833 -2.22044604925e-17 -0.1490711985
      vertex -0.907241689013 -0.467086179481 -0.0187592474085
    endloop
  endfacet
  facet normal  -0.178411044887 0.309016994375 0.934172358963
    outer loop
      vertex -0.907241689013 -0.467086179481 -0.0187592474085
      vertex -0.780546928833 -2.22044604925e-17 -0.1490711985
      vertex -0.878771623471 -2.22044604925e-17 -0.167830445908
    endloop
  endfacet
  facet normal  -0.110264089708 0.809016994375 0.57735026919
    outer loop
      vertex -0.780546928833 -2.22044604925e-17 -0.1490711985
      vertex -0.706011329583 0.288675134595 -0.539344662917
      vertex -0.878771623471 -2.22044604925e-17 -0.167830445908
    endloop
  endfacet
  facet normal  -0.110264089708 0.809016994375 0.57735026919
    outer loop
      vertex -0.878771623471 -2.22044604925e-17 -0.167830445908
      vertex -0.706011329583 0.288675134595 -0.539344662917
      vertex -0.804236024221 0.288675134595 -0.558103910325
    endloop
  endfacet
  facet normal  -0.110264089708 0.809016994375 0.57735026919
    outer loop
      vertex -0.706011329583 0.288675134595 -0.539344662917
      vertex -0.241202265917 0.417774579468 -0.631475730333
      vertex -0.736364429494 0.341248245807 -0.618810110146
    endloop
  endfacet
  facet normal  -0.110264089708 0.809016994375 0.57735026919
    outer loop
      vertex -0.736364429494 0.341248245807 -0.618810110146
      vertex -0.241202265917 0.417774579468 -0.631475730333
      vertex -0.271555365827 0.47034769068 -0.710941177562
    endloop
  endfacet
  facet normal  -0.866025403784 -0.5 -1.76607673088e-16
    outer loop
      vertex -0.241202265917 0.417774579468 -0.631475730333
      vertex -0.436338998125 0.755761314076 -0.333333333333
      vertex -0.271555365827 0.47034769068 -0.710941177562
    endloop
  endfacet
  facet normal  -0.866025403784 -0.5 -1.76607673088e-16
    outer loop
      vertex -0.271555365827 0.47034769068 -0.710941177562
      vertex -0.436338998125 0.755761314076 -0.333333333333
      vertex -0.466692098035 0.808334425288 -0.412798780563
    endloop
  endfacet
  facet normal  -0.866025403784 -0.5 1.76607673088e-17
    outer loop
      vertex -0.436338998125 0.755761314076 -0.333333333333
      vertex -0.390273464417 0.675973469216 0.1490711985
      vertex -0.485451345444 0.840826394911 -0.314574085925
    endloop
  endfacet
  facet normal  -0.866025403784 -0.5 1.76607673088e-17
    outer loop
      vertex -0.485451345444 0.840826394911 -0.314574085925
      vertex -0.390273464417 0.675973469216 0.1490711985
      vertex -0.439385811735 0.761038550051 0.167830445908
    endloop
  endfacet
  facet normal  0.356822089773 2.29589975015e-16 0.934172358963
    outer loop
      vertex -0.390273464417 0.675973469216 0.1490711985
      vertex -2.77555756156e-17 0.934172358963 0.0
      vertex -0.439385811735 0.761038550051 0.167830445908
    endloop
  endfacet
  facet normal  0.356822089773 2.29589975015e-16 0.934172358963
    outer loop
      vertex -0.439385811735 0.761038550051 0.167830445908
      vertex -2.77555756156e-17 0.934172358963 0.0
      vertex -0.0491123473188 1.0192374398 0.0187592474085
    endloop
  endfacet
  facet normal  0.356822089773 1.41286138471e-16 0.934172358963
    outer loop
      vertex -2.77555756156e-17 0.934172358963 0.0
      vertex 0.390273464417 0.675973469216 -0.1490711985
      vertex 0.0491123473188 1.0192374398 -0.0187592474085
    endloop
  endfacet
  facet normal  0.356822089773 1.41286138471e-16 0.934172358963
    outer loop
      vertex 0.0491123473188 1.0192374398 -0.0187592474085
      vertex 0.390273464417 0.675973469216 -0.1490711985
      vertex 0.439385811735 0.761038550051 -0.167830445908
    endloop
  endfacet
  facet normal  0.755761314076 -0.309016994375 0.57735026919
    outer loop
      vertex 0.390273464417 0.675973469216 -0.1490711985
      vertex 0.603005664792 0.467086179481 -0.539344662917
      vertex 0.439385811735 0.761038550051 -0.167830445908
    endloop
  endfacet
  facet normal  0.755761314076 -0.309016994375 0.57735026919
    outer loop
      vertex 0.439385811735 0.761038550051 -0.167830445908
      vertex 0.603005664792 0.467086179481 -0.539344662917
      vertex 0.65211801211 0.552151260317 -0.558103910325
    endloop
  endfacet
  facet normal  0.755761314076 -0.309016994375 0.57735026919
    outer loop
      vertex 0.603005664792 0.467086179481 -0.539344662917
      vertex 0.482404531833 0.0 -0.631475730333
      vertex 0.663711864612 0.467086179481 -0.618810110146
    endloop
  endfacet
  facet normal  0.755761314076 -0.309016994375 0.57735026919
    outer loop
      vertex 0.663711864612 0.467086179481 -0.618810110146
      vertex 0.482404531833 0.0 -0.631475730333
      vertex 0.543110731654 0.0 -0.710941177562
    endloop
  endfacet
  facet normal  0.467086179481 -0.809016994375 0.356822089773
    outer loop
      vertex 0.482404531833 0.0 -0.631475730333
      vertex 0.166666666667 -0.288675134595 -0.87267799625
      vertex 0.543110731654 0.0 -0.710941177562
    endloop
  endfacet
  facet normal  0.467086179481 -0.809016994375 0.356822089773
    outer loop
      vertex 0.543110731654 0.0 -0.710941177562
      vertex 0.166666666667 -0.288675134595 -0.87267799625
      vertex 0.227372866487 -0.288675134595 -0.952143443479
    endloop
  endfacet
  facet normal  0.467086179481 -0.809016994375 0.356822089773
    outer loop
      vertex 0.166666666667 -0.288675134595 -0.87267799625
      vertex -0.241202265917 -0.417774579468 -0.631475730333
      vertex 0.136313566756 -0.341248245807 -0.952143443479
    endloop
  endfacet
  facet normal  0.467086179481 -0.809016994375 0.356822089773
    outer loop
      vertex 0.136313566756 -0.341248245807 -0.952143443479
      vertex -0.241202265917 -0.417774579468 -0.631475730333
      vertex -0.271555365827 -0.47034769068 -0.710941177562
    endloop
  endfacet
  facet normal  0.645497224368 0.5 -0.57735026919
    outer loop
      vertex -0.241202265917 -0.417774579468 -0.631475730333
      vertex 0.103005664792 -0.755761314076 -0.539344662917
      vertex -0.271555365827 -0.47034769068 -0.710941177562
    endloop
  endfacet
  facet normal  0.645497224368 0.5 -0.57735026919
    outer loop
      vertex -0.271555365827 -0.47034769068 -0.710941177562
      vertex 0.103005664792 -0.755761314076 -0.539344662917
      vertex 0.0726525648813 -0.808334425288 -0.618810110146
    endloop
  endfacet
  facet normal  0.645497224368 0.5 -0.57735026919
    outer loop
      vertex 0.103005664792 -0.755761314076 -0.539344662917
      vertex 0.390273464417 -0.675973469216 -0.1490711985
      vertex 0.15211801211 -0.840826394911 -0.558103910325
    endloop
  endfacet
  facet normal  0.645497224368 0.5 -0.57735026919
    outer loop
      vertex 0.15211801211 -0.840826394911 -0.558103910325
      vertex 0.390273464417 -0.675973469216 -0.1490711985
      vertex 0.439385811735 -0.761038550051 -0.167830445908
    endloop
  endfacet
  facet normal  0.866025403784 0.5 -1.05964603853e-16
    outer loop
      vertex 0.390273464417 -0.675973469216 -0.1490711985
      vertex 0.436338998125 -0.755761314076 0.333333333333
      vertex 0.439385811735 -0.761038550051 -0.167830445908
    endloop
  endfacet
  facet normal  0.866025403784 0.5 -1.05964603853e-16
    outer loop
      vertex 0.439385811735 -0.761038550051 -0.167830445908
      vertex 0.436338998125 -0.755761314076 0.333333333333
      vertex 0.485451345444 -0.840826394911 0.314574085925
    endloop
  endfacet
  facet normal  0.866025403784 0.5 -7.06430692353e-17
    outer loop
      vertex 0.436338998125 -0.755761314076 0.333333333333
      vertex 0.241202265917 -0.417774579468 0.631475730333
      vertex 0.466692098035 -0.808334425288 0.412798780563
    endloop
  endfacet
  facet normal  0.866025403784 0.5 -7.06430692353e-17
    outer loop
      vertex 0.466692098035 -0.808334425288 0.412798780563
      vertex 0.241202265917 -0.417774579468 0.631475730333
      vertex 0.271555365827 -0.47034769068 0.710941177562
    endloop
  endfacet
  facet normal  0.110264089708 -0.809016994375 -0.57735026919
    outer loop
      vertex 0.241202265917 -0.417774579468 0.631475730333
      vertex 0.706011329583 -0.288675134595 0.539344662917
      vertex 0.271555365827 -0.47034769068 0.710941177562
    endloop
  endfacet
  facet normal  0.110264089708 -0.809016994375 -0.57735026919
    outer loop
      vertex 0.271555365827 -0.47034769068 0.710941177562
      vertex 0.706011329583 -0.288675134595 0.539344662917
      vertex 0.736364429494 -0.341248245807 0.618810110146
    endloop
  endfacet
  facet normal  0.110264089708 -0.809016994375 -0.57735026919
    outer loop
      vertex 0.706011329583 -0.288675134595 0.539344662917
      vertex 0.780546928833 0.0 0.1490711985
      vertex 0.804236024221 -0.288675134595 0.558103910325
    endloop
  endfacet
  facet normal  0.110264089708 -0.809016994375 -0.57735026919
    outer loop
      vertex 0.804236024221 -0.288675134595 0.558103910325
      vertex 0.780546928833 0.0 0.1490711985
      vertex 0.878771623471 1.14606817409e-17 0.167830445908
    endloop
  endfacet
  facet normal  0.110264089708 0.809016994375 -0.57735026919
    outer loop
      vertex 0.780546928833 0.0 0.1490711985
      vertex 0.706011329583 0.288675134595 0.539344662917
      vertex 0.878771623471 1.14606817409e-17 0.167830445908
    endloop
  endfacet
  facet normal  0.110264089708 0.809016994375 -0.57735026919
    outer loop
      vertex 0.878771623471 1.14606817409e-17 0.167830445908
      vertex 0.706011329583 0.288675134595 0.539344662917
      vertex 0.804236024221 0.288675134595 0.558103910325
    endloop
  endfacet
  facet normal  0.110264089708 0.809016994375 -0.57735026919
    outer loop
      vertex 0.706011329583 0.288675134595 0.539344662917
      vertex 0.241202265917 0.417774579468 0.631475730333
      vertex 0.736364429494 0.341248245807 0.618810110146
    endloop
  endfacet
  facet normal  0.110264089708 0.809016994375 -0.57735026919
    outer loop
      vertex 0.736364429494 0.341248245807 0.618810110146
      vertex 0.241202265917 0.417774579468 0.631475730333
      vertex 0.271555365827 0.47034769068 0.710941177562
    endloop
  endfacet
  facet normal  -0.467086179481 0.809016994375 -0.356822089773
    outer loop
      vertex 0.241202265917 0.417774579468 0.631475730333
      vertex -0.166666666667 0.288675134595 0.87267799625
      vertex 0.271555365827 0.47034769068 0.710941177562
    endloop
  endfacet
  facet normal  -0.467086179481 0.809016994375 -0.356822089773
    outer loop
      vertex 0.271555365827 0.47034769068 0.710941177562
      vertex -0.166666666667 0.288675134595 0.87267799625
      vertex -0.136313566756 0.341248245807 0.952143443479
    endloop
  endfacet
  facet normal  -0.467086179481 0.809016994375 -0.356822089773
    outer loop
      vertex -0.166666666667 0.288675134595 0.87267799625
      vertex -0.482404531833 -2.22044604925e-17 0.631475730333
      vertex -0.227372866487 0.288675134595 0.952143443479
    endloop
  endfacet
  facet normal  -0.467086179481 0.809016994375 -0.356822089773
    outer loop
      vertex -0.227372866487 0.288675134595 0.952143443479
      vertex -0.482404531833 -2.22044604925e-17 0.631475730333
      vertex -0.543110731654 -2.79348013629e-17 0.710941177562
    endloop
  endfacet
Annas-Mac-mini:dodecahedron ywubshit$ git add *
Annas-Mac-mini:dodecahedron ywubshit$ git commit -m"Add path"
[master b198cb2] Add path
 Committer: ywubshit <ywubshit@Annas-Mac-mini.local>
Your name and email address were configured automatically based
on your username and hostname. Please check that they are accurate.
You can suppress this message by setting them explicitly. Run the
following command and follow the instructions in your editor to edit
your configuration file:

    git config --global --edit

After doing this, you may fix the identity used for this commit with:

    git commit --amend --reset-author

 2 files changed, 363 insertions(+), 110 deletions(-)
Annas-Mac-mini:dodecahedron ywubshit$ git push
Counting objects: 5, done.
Delta compression using up to 4 threads.
Compressing objects: 100% (5/5), done.
Writing objects: 100% (5/5), 2.08 KiB | 2.08 MiB/s, done.
Total 5 (delta 4), reused 0 (delta 0)
remote: Resolving deltas: 100% (4/4), completed with 4 local objects.
To https://github.com/YeabkalA/RobotMotionPlanning.git
   40af17f..b198cb2  master -> master
Annas-Mac-mini:dodecahedron ywubshit$ python dodecahedron.py
solid layers
  facet normal  -0.467086179481 0.809016994375 -0.356822089773
    outer loop
      vertex 0.241202265917 0.417774579468 0.631475730333
      vertex -0.195217491947 0.279638173454 0.889562154864
      vertex 0.262883051567 0.455326801763 0.688236764068
    endloop
  endfacet
  facet normal  -0.467086179481 0.809016994375 -0.356822089773
    outer loop
      vertex 0.262883051567 0.455326801763 0.688236764068
      vertex -0.195217491947 0.279638173454 0.889562154864
      vertex -0.173536706297 0.317190395748 0.946323188599
    endloop
  endfacet
  facet normal  -0.467086179481 0.809016994375 -0.356822089773
    outer loop
      vertex -0.144565016105 0.308882394016 0.889562154864
      vertex -0.482404531833 -2.22044604925e-17 0.631475730333
      vertex -0.187926587405 0.308882394016 0.946323188599
    endloop
  endfacet
  facet normal  -0.467086179481 0.809016994375 -0.356822089773
    outer loop
      vertex -0.187926587405 0.308882394016 0.946323188599
      vertex -0.482404531833 -2.22044604925e-17 0.631475730333
      vertex -0.525766103134 -2.62975611142e-17 0.688236764068
    endloop
  endfacet
  facet normal  -0.755761314076 0.309016994375 -0.57735026919
    outer loop
      vertex -0.482404531833 -2.22044604925e-17 0.631475730333
      vertex -0.611447744099 -0.499782212045 0.532895488197
      vertex -0.525766103134 -2.62975611142e-17 0.688236764068
    endloop
  endfacet
  facet normal  -0.755761314076 0.309016994375 -0.57735026919
    outer loop
      vertex -0.525766103134 -2.62975611142e-17 0.688236764068
      vertex -0.611447744099 -0.499782212045 0.532895488197
      vertex -0.654809315399 -0.499782212045 0.589656521933
    endloop
  endfacet
  facet normal  -0.755761314076 0.309016994375 -0.57735026919
    outer loop
      vertex -0.617896918818 -0.4524640692 0.566663805426
      vertex -0.390273464417 -0.675973469216 0.1490711985
      vertex -0.652977166903 -0.513224841225 0.58006326786
    endloop
  endfacet
  facet normal  -0.755761314076 0.309016994375 -0.57735026919
    outer loop
      vertex -0.652977166903 -0.513224841225 0.58006326786
      vertex -0.390273464417 -0.675973469216 0.1490711985
      vertex -0.425353712502 -0.736734241241 0.162470660935
    endloop
  endfacet
  facet normal  -0.178411044887 0.309016994375 0.934172358963
    outer loop
      vertex -0.390273464417 -0.675973469216 0.1490711985
      vertex -0.838329041472 -0.4524640692 -0.010434983895
      vertex -0.425353712502 -0.736734241241 0.162470660935
    endloop
  endfacet
  facet normal  -0.178411044887 0.309016994375 0.934172358963
    outer loop
      vertex -0.425353712502 -0.736734241241 0.162470660935
      vertex -0.838329041472 -0.4524640692 -0.010434983895
      vertex -0.873409289557 -0.513224841225 0.00296447853965
    endloop
  endfacet
  facet normal  -0.178411044887 0.309016994375 0.934172358963
    outer loop
      vertex -0.811009898963 -0.499782212045 0.010434983895
      vertex -0.780546928833 -2.22044604925e-17 -0.1490711985
      vertex -0.881170395133 -0.499782212045 -0.00296447853965
    endloop
  endfacet
  facet normal  -0.178411044887 0.309016994375 0.934172358963
    outer loop
      vertex -0.881170395133 -0.499782212045 -0.00296447853965
      vertex -0.780546928833 -2.22044604925e-17 -0.1490711985
      vertex -0.850707425003 -2.22044604925e-17 -0.162470660935
    endloop
  endfacet
  facet normal  -0.110264089708 0.809016994375 0.57735026919
    outer loop
      vertex -0.780546928833 -2.22044604925e-17 -0.1490711985
      vertex -0.700793837636 0.308882394016 -0.566663805426
      vertex -0.850707425003 -2.22044604925e-17 -0.162470660935
    endloop
  endfacet
  facet normal  -0.110264089708 0.809016994375 0.57735026919
    outer loop
      vertex -0.850707425003 -2.22044604925e-17 -0.162470660935
      vertex -0.700793837636 0.308882394016 -0.566663805426
      vertex -0.770954333806 0.308882394016 -0.58006326786
    endloop
  endfacet
  facet normal  -0.110264089708 0.809016994375 0.57735026919
    outer loop
      vertex -0.73854796404 0.279638173454 -0.532895488197
      vertex -0.241202265917 0.417774579468 -0.631475730333
      vertex -0.76022874969 0.317190395748 -0.589656521933
    endloop
  endfacet
  facet normal  -0.110264089708 0.809016994375 0.57735026919
    outer loop
      vertex -0.76022874969 0.317190395748 -0.589656521933
      vertex -0.241202265917 0.417774579468 -0.631475730333
      vertex -0.262883051567 0.455326801763 -0.688236764068
    endloop
  endfacet
  facet normal  -0.866025403784 -0.5 -1.38645276069e-16
    outer loop
      vertex -0.241202265917 0.417774579468 -0.631475730333
      vertex -0.44999856938 0.779420385499 -0.312463365543
      vertex -0.262883051567 0.455326801763 -0.688236764068
    endloop
  endfacet
  facet normal  -0.866025403784 -0.5 -1.38645276069e-16
    outer loop
      vertex -0.262883051567 0.455326801763 -0.688236764068
      vertex -0.44999856938 0.779420385499 -0.312463365543
      vertex -0.47167935503 0.816972607793 -0.369224399278
    endloop
  endfacet
  facet normal  -0.866025403784 -0.5 1.15537730058e-16
    outer loop
      vertex -0.439563585485 0.761346463216 -0.367101650562
      vertex -0.390273464417 0.675973469216 0.1490711985
      vertex -0.474643833569 0.822107235242 -0.353702188127
    endloop
  endfacet
  facet normal  -0.866025403784 -0.5 1.15537730058e-16
    outer loop
      vertex -0.474643833569 0.822107235242 -0.353702188127
      vertex -0.390273464417 0.675973469216 0.1490711985
      vertex -0.425353712502 0.736734241241 0.162470660935
    endloop
  endfacet
  facet normal  0.356822089773 -0.0 0.934172358963
    outer loop
      vertex -0.390273464417 0.675973469216 0.1490711985
      vertex 0.0273191425092 0.952246281245 -0.010434983895
      vertex -0.425353712502 0.736734241241 0.162470660935
    endloop
  endfacet
  facet normal  0.356822089773 -0.0 0.934172358963
    outer loop
      vertex -0.425353712502 0.736734241241 0.162470660935
      vertex 0.0273191425092 0.952246281245 -0.010434983895
      vertex -0.00776110557572 1.01300705327 0.00296447853965
    endloop
  endfacet
  facet normal  0.356822089773 1.15537730058e-16 0.934172358963
    outer loop
      vertex -0.0273191425092 0.952246281245 0.010434983895
      vertex 0.390273464417 0.675973469216 -0.1490711985
      vertex 0.00776110557572 1.01300705327 -0.00296447853965
    endloop
  endfacet
  facet normal  0.356822089773 1.15537730058e-16 0.934172358963
    outer loop
      vertex 0.00776110557572 1.01300705327 -0.00296447853965
      vertex 0.390273464417 0.675973469216 -0.1490711985
      vertex 0.425353712502 0.736734241241 -0.162470660935
    endloop
  endfacet
  facet normal  0.755761314076 -0.309016994375 0.57735026919
    outer loop
      vertex 0.390273464417 0.675973469216 -0.1490711985
      vertex 0.617896918818 0.4524640692 -0.566663805426
      vertex 0.425353712502 0.736734241241 -0.162470660935
    endloop
  endfacet
  facet normal  0.755761314076 -0.309016994375 0.57735026919
    outer loop
      vertex 0.425353712502 0.736734241241 -0.162470660935
      vertex 0.617896918818 0.4524640692 -0.566663805426
      vertex 0.652977166903 0.513224841225 -0.58006326786
    endloop
  endfacet
  facet normal  0.755761314076 -0.309016994375 0.57735026919
    outer loop
      vertex 0.611447744099 0.499782212045 -0.532895488197
      vertex 0.482404531833 0.0 -0.631475730333
      vertex 0.654809315399 0.499782212045 -0.589656521933
    endloop
  endfacet
  facet normal  0.755761314076 -0.309016994375 0.57735026919
    outer loop
      vertex 0.654809315399 0.499782212045 -0.589656521933
      vertex 0.482404531833 0.0 -0.631475730333
      vertex 0.525766103134 0.0 -0.688236764068
    endloop
  endfacet
  facet normal  0.467086179481 -0.809016994375 0.356822089773
    outer loop
      vertex 0.482404531833 0.0 -0.631475730333
      vertex 0.144565016105 -0.308882394016 -0.889562154864
      vertex 0.525766103134 0.0 -0.688236764068
    endloop
  endfacet
  facet normal  0.467086179481 -0.809016994375 0.356822089773
    outer loop
      vertex 0.525766103134 0.0 -0.688236764068
      vertex 0.144565016105 -0.308882394016 -0.889562154864
      vertex 0.187926587405 -0.308882394016 -0.946323188599
    endloop
  endfacet
  facet normal  0.467086179481 -0.809016994375 0.356822089773
    outer loop
      vertex 0.195217491947 -0.279638173454 -0.889562154864
      vertex -0.241202265917 -0.417774579468 -0.631475730333
      vertex 0.173536706297 -0.317190395748 -0.946323188599
    endloop
  endfacet
  facet normal  0.467086179481 -0.809016994375 0.356822089773
    outer loop
      vertex 0.173536706297 -0.317190395748 -0.946323188599
      vertex -0.241202265917 -0.417774579468 -0.631475730333
      vertex -0.262883051567 -0.455326801763 -0.688236764068
    endloop
  endfacet
  facet normal  0.645497224368 0.5 -0.57735026919
    outer loop
      vertex -0.241202265917 -0.417774579468 -0.631475730333
      vertex 0.127100219941 -0.779420385499 -0.532895488197
      vertex -0.262883051567 -0.455326801763 -0.688236764068
    endloop
  endfacet
  facet normal  0.645497224368 0.5 -0.57735026919
    outer loop
      vertex -0.262883051567 -0.455326801763 -0.688236764068
      vertex 0.127100219941 -0.779420385499 -0.532895488197
      vertex 0.105419434291 -0.816972607793 -0.589656521933
    endloop
  endfacet
  facet normal  0.645497224368 0.5 -0.57735026919
    outer loop
      vertex 0.0828969188179 -0.761346463216 -0.566663805426
      vertex 0.390273464417 -0.675973469216 -0.1490711985
      vertex 0.117977166903 -0.822107235242 -0.58006326786
    endloop
  endfacet
  facet normal  0.645497224368 0.5 -0.57735026919
    outer loop
      vertex 0.117977166903 -0.822107235242 -0.58006326786
      vertex 0.390273464417 -0.675973469216 -0.1490711985
      vertex 0.425353712502 -0.736734241241 -0.162470660935
    endloop
  endfacet
  facet normal  0.866025403784 0.5 -1.15537730058e-16
    outer loop
      vertex 0.390273464417 -0.675973469216 -0.1490711985
      vertex 0.439563585485 -0.761346463216 0.367101650562
      vertex 0.425353712502 -0.736734241241 -0.162470660935
    endloop
  endfacet
  facet normal  0.866025403784 0.5 -1.15537730058e-16
    outer loop
      vertex 0.425353712502 -0.736734241241 -0.162470660935
      vertex 0.439563585485 -0.761346463216 0.367101650562
      vertex 0.474643833569 -0.822107235242 0.353702188127
    endloop
  endfacet
  facet normal  0.866025403784 0.5 1.38645276069e-16
    outer loop
      vertex 0.44999856938 -0.779420385499 0.312463365543
      vertex 0.241202265917 -0.417774579468 0.631475730333
      vertex 0.47167935503 -0.816972607793 0.369224399278
    endloop
  endfacet
  facet normal  0.866025403784 0.5 1.38645276069e-16
    outer loop
      vertex 0.47167935503 -0.816972607793 0.369224399278
      vertex 0.241202265917 -0.417774579468 0.631475730333
      vertex 0.262883051567 -0.455326801763 0.688236764068
    endloop
  endfacet
  facet normal  0.110264089708 -0.809016994375 -0.57735026919
    outer loop
      vertex 0.241202265917 -0.417774579468 0.631475730333
      vertex 0.73854796404 -0.279638173454 0.532895488197
      vertex 0.262883051567 -0.455326801763 0.688236764068
    endloop
  endfacet
  facet normal  0.110264089708 -0.809016994375 -0.57735026919
    outer loop
      vertex 0.262883051567 -0.455326801763 0.688236764068
      vertex 0.73854796404 -0.279638173454 0.532895488197
      vertex 0.76022874969 -0.317190395748 0.589656521933
    endloop
  endfacet
  facet normal  0.110264089708 -0.809016994375 -0.57735026919
    outer loop
      vertex 0.700793837636 -0.308882394016 0.566663805426
      vertex 0.780546928833 0.0 0.1490711985
      vertex 0.770954333806 -0.308882394016 0.58006326786
    endloop
  endfacet
  facet normal  0.110264089708 -0.809016994375 -0.57735026919
    outer loop
      vertex 0.770954333806 -0.308882394016 0.58006326786
      vertex 0.780546928833 0.0 0.1490711985
      vertex 0.850707425003 8.18620124349e-18 0.162470660935
    endloop
  endfacet
  facet normal  0.110264089708 0.809016994375 -0.57735026919
    outer loop
      vertex 0.780546928833 0.0 0.1490711985
      vertex 0.700793837636 0.308882394016 0.566663805426
      vertex 0.850707425003 8.18620124349e-18 0.162470660935
    endloop
  endfacet
  facet normal  0.110264089708 0.809016994375 -0.57735026919
    outer loop
      vertex 0.850707425003 8.18620124349e-18 0.162470660935
      vertex 0.700793837636 0.308882394016 0.566663805426
      vertex 0.770954333806 0.308882394016 0.58006326786
    endloop
  endfacet
  facet normal  0.110264089708 0.809016994375 -0.57735026919
    outer loop
      vertex 0.73854796404 0.279638173454 0.532895488197
      vertex 0.241202265917 0.417774579468 0.631475730333
      vertex 0.76022874969 0.317190395748 0.589656521933
    endloop
  endfacet
  facet normal  0.110264089708 0.809016994375 -0.57735026919
    outer loop
      vertex 0.76022874969 0.317190395748 0.589656521933
      vertex 0.241202265917 0.417774579468 0.631475730333
      vertex 0.262883051567 0.455326801763 0.688236764068
    endloop
  endfacet
  facet normal  -0.467086179481 0.809016994375 -0.356822089773
    outer loop
      vertex 0.241202265917 0.417774579468 0.631475730333
      vertex -0.195217491947 0.279638173454 0.889562154864
      vertex 0.262883051567 0.455326801763 0.688236764068
    endloop
  endfacet
  facet normal  -0.467086179481 0.809016994375 -0.356822089773
    outer loop
      vertex 0.262883051567 0.455326801763 0.688236764068
      vertex -0.195217491947 0.279638173454 0.889562154864
      vertex -0.173536706297 0.317190395748 0.946323188599
    endloop
  endfacet
  facet normal  -0.467086179481 0.809016994375 -0.356822089773
    outer loop
      vertex -0.144565016105 0.308882394016 0.889562154864
      vertex -0.482404531833 -2.22044604925e-17 0.631475730333
      vertex -0.187926587405 0.308882394016 0.946323188599
    endloop
  endfacet
  facet normal  -0.467086179481 0.809016994375 -0.356822089773
    outer loop
      vertex -0.187926587405 0.308882394016 0.946323188599
      vertex -0.482404531833 -2.22044604925e-17 0.631475730333
      vertex -0.525766103134 -2.62975611142e-17 0.688236764068
    endloop
  endfacet
  facet normal 0.303530999103 0.525731112119 0.794654472292
    outer loop
        vertex -0.333333333333 0.57735026919 0.7453559925
        vertex 0.0 0.0 1.0
        vertex 0.666666666667 0.0 0.7453559925
    endloop
endfacet
facet normal 0.303530999103 0.525731112119 0.794654472292
    outer loop
        vertex -0.333333333333 0.57735026919 0.7453559925
        vertex 0.666666666667 0.0 0.7453559925
        vertex 0.7453559925 0.57735026919 0.333333333333
    endloop
endfacet
facet normal 0.303530999103 0.525731112119 0.794654472292
    outer loop
        vertex -0.333333333333 0.57735026919 0.7453559925
        vertex 0.7453559925 0.57735026919 0.333333333333
        vertex 0.12732200375 0.934172358963 0.333333333333
    endloop
endfacet
facet normal -0.607061998207 -2.91839392718e-17 0.794654472292
    outer loop
        vertex -0.333333333333 -0.57735026919 0.7453559925
        vertex 0.0 0.0 1.0
        vertex -0.333333333333 0.57735026919 0.7453559925
    endloop
endfacet
facet normal -0.607061998207 -2.91839392718e-17 0.794654472292
    outer loop
        vertex -0.333333333333 -0.57735026919 0.7453559925
        vertex -0.333333333333 0.57735026919 0.7453559925
        vertex -0.87267799625 0.356822089773 0.333333333333
    endloop
endfacet
facet normal -0.607061998207 0.0 0.794654472292
    outer loop
        vertex -0.333333333333 -0.57735026919 0.7453559925
        vertex -0.87267799625 0.356822089773 0.333333333333
        vertex -0.87267799625 -0.356822089773 0.333333333333
    endloop
endfacet
facet normal 0.303530999103 -0.525731112119 0.794654472292
    outer loop
        vertex 0.666666666667 0.0 0.7453559925
        vertex 0.0 0.0 1.0
        vertex -0.333333333333 -0.57735026919 0.7453559925
    endloop
endfacet
facet normal 0.303530999103 -0.525731112119 0.794654472292
    outer loop
        vertex 0.666666666667 0.0 0.7453559925
        vertex -0.333333333333 -0.57735026919 0.7453559925
        vertex 0.12732200375 -0.934172358963 0.333333333333
    endloop
endfacet
facet normal 0.303530999103 -0.525731112119 0.794654472292
    outer loop
        vertex 0.666666666667 0.0 0.7453559925
        vertex 0.12732200375 -0.934172358963 0.333333333333
        vertex 0.7453559925 -0.57735026919 0.333333333333
    endloop
endfacet
facet normal 0.982246946377 0.0 0.187592474085
    outer loop
        vertex 0.7453559925 0.57735026919 0.333333333333
        vertex 0.666666666667 0.0 0.7453559925
        vertex 0.7453559925 -0.57735026919 0.333333333333
    endloop
endfacet
facet normal 0.982246946377 0.0 0.187592474085
    outer loop
        vertex 0.7453559925 0.57735026919 0.333333333333
        vertex 0.7453559925 -0.57735026919 0.333333333333
        vertex 0.87267799625 -0.356822089773 -0.333333333333
    endloop
endfacet
facet normal 0.982246946377 0.0 0.187592474085
    outer loop
        vertex 0.7453559925 0.57735026919 0.333333333333
        vertex 0.87267799625 -0.356822089773 -0.333333333333
        vertex 0.87267799625 0.356822089773 -0.333333333333
    endloop
endfacet
facet normal -0.491123473188 0.850650808352 0.187592474085
    outer loop
        vertex -0.87267799625 0.356822089773 0.333333333333
        vertex -0.333333333333 0.57735026919 0.7453559925
        vertex 0.12732200375 0.934172358963 0.333333333333
    endloop
endfacet
facet normal -0.491123473188 0.850650808352 0.187592474085
    outer loop
        vertex -0.87267799625 0.356822089773 0.333333333333
        vertex 0.12732200375 0.934172358963 0.333333333333
        vertex -0.12732200375 0.934172358963 -0.333333333333
    endloop
endfacet
facet normal -0.491123473188 0.850650808352 0.187592474085
    outer loop
        vertex -0.87267799625 0.356822089773 0.333333333333
        vertex -0.12732200375 0.934172358963 -0.333333333333
        vertex -0.7453559925 0.57735026919 -0.333333333333
    endloop
endfacet
facet normal -0.491123473188 -0.850650808352 0.187592474085
    outer loop
        vertex 0.12732200375 -0.934172358963 0.333333333333
        vertex -0.333333333333 -0.57735026919 0.7453559925
        vertex -0.87267799625 -0.356822089773 0.333333333333
    endloop
endfacet
facet normal -0.491123473188 -0.850650808352 0.187592474085
    outer loop
        vertex 0.12732200375 -0.934172358963 0.333333333333
        vertex -0.87267799625 -0.356822089773 0.333333333333
        vertex -0.7453559925 -0.57735026919 -0.333333333333
    endloop
endfacet
facet normal -0.491123473188 -0.850650808352 0.187592474085
    outer loop
        vertex 0.12732200375 -0.934172358963 0.333333333333
        vertex -0.7453559925 -0.57735026919 -0.333333333333
        vertex -0.12732200375 -0.934172358963 -0.333333333333
    endloop
endfacet
facet normal -0.303530999103 -0.525731112119 -0.794654472292
    outer loop
        vertex -0.0 -0.0 -1.0
        vertex 0.333333333333 -0.57735026919 -0.7453559925
        vertex -0.12732200375 -0.934172358963 -0.333333333333
    endloop
endfacet
facet normal -0.303530999103 -0.525731112119 -0.794654472292
    outer loop
        vertex -0.0 -0.0 -1.0
        vertex -0.12732200375 -0.934172358963 -0.333333333333
        vertex -0.7453559925 -0.57735026919 -0.333333333333
    endloop
endfacet
facet normal -0.303530999103 -0.525731112119 -0.794654472292
    outer loop
        vertex -0.0 -0.0 -1.0
        vertex -0.7453559925 -0.57735026919 -0.333333333333
        vertex -0.666666666667 -0.0 -0.7453559925
    endloop
endfacet
facet normal 0.607061998207 0.0 -0.794654472292
    outer loop
        vertex -0.0 -0.0 -1.0
        vertex 0.333333333333 0.57735026919 -0.7453559925
        vertex 0.87267799625 0.356822089773 -0.333333333333
    endloop
endfacet
facet normal 0.607061998207 0.0 -0.794654472292
    outer loop
        vertex -0.0 -0.0 -1.0
        vertex 0.87267799625 0.356822089773 -0.333333333333
        vertex 0.87267799625 -0.356822089773 -0.333333333333
    endloop
endfacet
facet normal 0.607061998207 5.73034087044e-17 -0.794654472292
    outer loop
        vertex -0.0 -0.0 -1.0
        vertex 0.87267799625 -0.356822089773 -0.333333333333
        vertex 0.333333333333 -0.57735026919 -0.7453559925
    endloop
endfacet
facet normal -0.303530999103 0.525731112119 -0.794654472292
    outer loop
        vertex -0.0 -0.0 -1.0
        vertex -0.666666666667 -0.0 -0.7453559925
        vertex -0.7453559925 0.57735026919 -0.333333333333
    endloop
endfacet
facet normal -0.303530999103 0.525731112119 -0.794654472292
    outer loop
        vertex -0.0 -0.0 -1.0
        vertex -0.7453559925 0.57735026919 -0.333333333333
        vertex -0.12732200375 0.934172358963 -0.333333333333
    endloop
endfacet
facet normal -0.303530999103 0.525731112119 -0.794654472292
    outer loop
        vertex -0.0 -0.0 -1.0
        vertex -0.12732200375 0.934172358963 -0.333333333333
        vertex 0.333333333333 0.57735026919 -0.7453559925
    endloop
endfacet
facet normal -0.982246946377 1.14606817409e-16 -0.187592474085
    outer loop
        vertex -0.666666666667 -0.0 -0.7453559925
        vertex -0.7453559925 -0.57735026919 -0.333333333333
        vertex -0.87267799625 -0.356822089773 0.333333333333
    endloop
endfacet
facet normal -0.982246946377 0.0 -0.187592474085
    outer loop
        vertex -0.666666666667 -0.0 -0.7453559925
        vertex -0.87267799625 -0.356822089773 0.333333333333
        vertex -0.87267799625 0.356822089773 0.333333333333
    endloop
endfacet
facet normal -0.982246946377 -1.14606817409e-16 -0.187592474085
    outer loop
        vertex -0.666666666667 -0.0 -0.7453559925
        vertex -0.87267799625 0.356822089773 0.333333333333
        vertex -0.7453559925 0.57735026919 -0.333333333333
    endloop
endfacet
facet normal 0.491123473188 -0.850650808352 -0.187592474085
    outer loop
        vertex 0.333333333333 -0.57735026919 -0.7453559925
        vertex 0.87267799625 -0.356822089773 -0.333333333333
        vertex 0.7453559925 -0.57735026919 0.333333333333
    endloop
endfacet
facet normal 0.491123473188 -0.850650808352 -0.187592474085
    outer loop
        vertex 0.333333333333 -0.57735026919 -0.7453559925
        vertex 0.7453559925 -0.57735026919 0.333333333333
        vertex 0.12732200375 -0.934172358963 0.333333333333
    endloop
endfacet
facet normal 0.491123473188 -0.850650808352 -0.187592474085
    outer loop
        vertex 0.333333333333 -0.57735026919 -0.7453559925
        vertex 0.12732200375 -0.934172358963 0.333333333333
        vertex -0.12732200375 -0.934172358963 -0.333333333333
    endloop
endfacet
facet normal 0.491123473188 0.850650808352 -0.187592474085
    outer loop
        vertex 0.333333333333 0.57735026919 -0.7453559925
        vertex -0.12732200375 0.934172358963 -0.333333333333
        vertex 0.12732200375 0.934172358963 0.333333333333
    endloop
endfacet
facet normal 0.491123473188 0.850650808352 -0.187592474085
    outer loop
        vertex 0.333333333333 0.57735026919 -0.7453559925
        vertex 0.12732200375 0.934172358963 0.333333333333
        vertex 0.7453559925 0.57735026919 0.333333333333
    endloop
endfacet
facet normal 0.491123473188 0.850650808352 -0.187592474085
    outer loop
        vertex 0.333333333333 0.57735026919 -0.7453559925
        vertex 0.7453559925 0.57735026919 0.333333333333
        vertex 0.87267799625 0.356822089773 -0.333333333333
    endloop
endfacet
endsolid surface
