solid layers
  facet normal  0.467086179481 -0.809016994375 0.356822089773
    outer loop
      vertex 0.241202265917 0.417774579468 0.631475730333
      vertex -0.166666666667 0.288675134595 0.87267799625
      vertex 0.151765499552 0.26286555606 0.397327236146
    endloop
  endfacet
  facet normal  0.467086179481 -0.809016994375 0.356822089773
    outer loop
      vertex -0.166666666667 0.288675134595 0.87267799625
      vertex 0.151765499552 0.26286555606 0.397327236146
      vertex 0.151765499552 0.26286555606 0.397327236146
    endloop
  endfacet
  facet normal  -0.467086179481 0.809016994375 -0.356822089773
    outer loop
      vertex -0.482404531833 -2.22044604925e-17 0.631475730333
      vertex -0.166666666667 0.288675134595 0.87267799625
      vertex 0.151765499552 0.26286555606 0.397327236146
    endloop
  endfacet
  facet normal  -0.467086179481 0.809016994375 -0.356822089773
    outer loop
      vertex -0.166666666667 0.288675134595 0.87267799625
      vertex 0.151765499552 0.26286555606 0.397327236146
      vertex 0.151765499552 0.26286555606 0.397327236146
    endloop
  endfacet
  facet normal  0.467086179481 0.809016994375 0.356822089773
    outer loop
      vertex -0.482404531833 -2.22044604925e-17 0.631475730333
      vertex -0.166666666667 -0.288675134595 0.87267799625
      vertex -0.303530999103 -2.86517043522e-17 0.397327236146
    endloop
  endfacet
  facet normal  0.467086179481 0.809016994375 0.356822089773
    outer loop
      vertex -0.166666666667 -0.288675134595 0.87267799625
      vertex -0.303530999103 -2.86517043522e-17 0.397327236146
      vertex -0.303530999103 -2.86517043522e-17 0.397327236146
    endloop
  endfacet
  facet normal  -0.467086179481 -0.809016994375 -0.356822089773
    outer loop
      vertex 0.241202265917 -0.417774579468 0.631475730333
      vertex -0.166666666667 -0.288675134595 0.87267799625
      vertex -0.303530999103 -2.86517043522e-17 0.397327236146
    endloop
  endfacet
  facet normal  -0.467086179481 -0.809016994375 -0.356822089773
    outer loop
      vertex -0.166666666667 -0.288675134595 0.87267799625
      vertex -0.303530999103 -2.86517043522e-17 0.397327236146
      vertex -0.303530999103 -2.86517043522e-17 0.397327236146
    endloop
  endfacet
  facet normal  0.866025403784 0.5 7.19246533262e-17
    outer loop
      vertex 0.241202265917 -0.417774579468 0.631475730333
      vertex 0.436338998125 -0.755761314076 0.333333333333
      vertex 0.151765499552 -0.26286555606 0.397327236146
    endloop
  endfacet
  facet normal  0.866025403784 0.5 7.19246533262e-17
    outer loop
      vertex 0.436338998125 -0.755761314076 0.333333333333
      vertex 0.151765499552 -0.26286555606 0.397327236146
      vertex 0.151765499552 -0.26286555606 0.397327236146
    endloop
  endfacet
  facet normal  -0.866025403784 -0.5 4.94831324141e-17
    outer loop
      vertex 0.390273464417 -0.675973469216 -0.1490711985
      vertex 0.436338998125 -0.755761314076 0.333333333333
      vertex 0.151765499552 -0.26286555606 0.397327236146
    endloop
  endfacet
  facet normal  -0.866025403784 -0.5 4.94831324141e-17
    outer loop
      vertex 0.436338998125 -0.755761314076 0.333333333333
      vertex 0.151765499552 -0.26286555606 0.397327236146
      vertex 0.151765499552 -0.26286555606 0.397327236146
    endloop
  endfacet
  facet normal  -0.356822089773 -4.31547919957e-16 -0.934172358963
    outer loop
      vertex 0.390273464417 -0.675973469216 -0.1490711985
      vertex 2.77555756156e-17 -0.934172358963 0.0
      vertex 0.245561736594 -0.425325404176 -0.0937962370425
    endloop
  endfacet
  facet normal  -0.356822089773 -4.31547919957e-16 -0.934172358963
    outer loop
      vertex 2.77555756156e-17 -0.934172358963 0.0
      vertex 0.245561736594 -0.425325404176 -0.0937962370425
      vertex 0.245561736594 -0.425325404176 -0.0937962370425
    endloop
  endfacet
  facet normal  0.356822089773 1.97932529656e-16 0.934172358963
    outer loop
      vertex -0.390273464417 -0.675973469216 0.1490711985
      vertex 2.77555756156e-17 -0.934172358963 0.0
      vertex 0.245561736594 -0.425325404176 -0.0937962370425
    endloop
  endfacet
  facet normal  0.356822089773 1.97932529656e-16 0.934172358963
    outer loop
      vertex 2.77555756156e-17 -0.934172358963 0.0
      vertex 0.245561736594 -0.425325404176 -0.0937962370425
      vertex 0.245561736594 -0.425325404176 -0.0937962370425
    endloop
  endfacet
  facet normal  0.178411044887 -0.309016994375 -0.934172358963
    outer loop
      vertex -0.390273464417 -0.675973469216 0.1490711985
      vertex -0.809016994375 -0.467086179481 0.0
      vertex -0.245561736594 -0.425325404176 0.0937962370425
    endloop
  endfacet
  facet normal  0.178411044887 -0.309016994375 -0.934172358963
    outer loop
      vertex -0.809016994375 -0.467086179481 0.0
      vertex -0.245561736594 -0.425325404176 0.0937962370425
      vertex -0.245561736594 -0.425325404176 0.0937962370425
    endloop
  endfacet
  facet normal  -0.178411044887 0.309016994375 0.934172358963
    outer loop
      vertex -0.780546928833 -2.22044604925e-17 -0.1490711985
      vertex -0.809016994375 -0.467086179481 0.0
      vertex -0.245561736594 -0.425325404176 0.0937962370425
    endloop
  endfacet
  facet normal  -0.178411044887 0.309016994375 0.934172358963
    outer loop
      vertex -0.809016994375 -0.467086179481 0.0
      vertex -0.245561736594 -0.425325404176 0.0937962370425
      vertex -0.245561736594 -0.425325404176 0.0937962370425
    endloop
  endfacet
  facet normal  0.178411044887 0.309016994375 -0.934172358963
    outer loop
      vertex -0.780546928833 -2.22044604925e-17 -0.1490711985
      vertex -0.809016994375 0.467086179481 0.0
      vertex -0.491123473188 -0.0 -0.0937962370425
    endloop
  endfacet
  facet normal  0.178411044887 0.309016994375 -0.934172358963
    outer loop
      vertex -0.809016994375 0.467086179481 0.0
      vertex -0.491123473188 -0.0 -0.0937962370425
      vertex -0.491123473188 -0.0 -0.0937962370425
    endloop
  endfacet
  facet normal  -0.178411044887 -0.309016994375 0.934172358963
    outer loop
      vertex -0.390273464417 0.675973469216 0.1490711985
      vertex -0.809016994375 0.467086179481 0.0
      vertex -0.491123473188 -0.0 -0.0937962370425
    endloop
  endfacet
  facet normal  -0.178411044887 -0.309016994375 0.934172358963
    outer loop
      vertex -0.809016994375 0.467086179481 0.0
      vertex -0.491123473188 -0.0 -0.0937962370425
      vertex -0.491123473188 -0.0 -0.0937962370425
    endloop
  endfacet
  facet normal  -0.356822089773 1.91799075536e-16 -0.934172358963
    outer loop
      vertex -0.390273464417 0.675973469216 0.1490711985
      vertex -2.77555756156e-17 0.934172358963 0.0
      vertex -0.245561736594 0.425325404176 0.0937962370425
    endloop
  endfacet
  facet normal  -0.356822089773 1.91799075536e-16 -0.934172358963
    outer loop
      vertex -2.77555756156e-17 0.934172358963 0.0
      vertex -0.245561736594 0.425325404176 0.0937962370425
      vertex -0.245561736594 0.425325404176 0.0937962370425
    endloop
  endfacet
  facet normal  0.356822089773 -9.89662648282e-17 0.934172358963
    outer loop
      vertex 0.390273464417 0.675973469216 -0.1490711985
      vertex -2.77555756156e-17 0.934172358963 0.0
      vertex -0.245561736594 0.425325404176 0.0937962370425
    endloop
  endfacet
  facet normal  0.356822089773 -9.89662648282e-17 0.934172358963
    outer loop
      vertex -2.77555756156e-17 0.934172358963 0.0
      vertex -0.245561736594 0.425325404176 0.0937962370425
      vertex -0.245561736594 0.425325404176 0.0937962370425
    endloop
  endfacet
  facet normal 0.303530999103 0.525731112119 0.794654472292
    outer loop
        vertex -0.333333333333 0.57735026919 0.7453559925
        vertex 0.0 0.0 1.0
        vertex 0.666666666667 0.0 0.7453559925
    endloop
endfacet
facet normal 0.303530999103 0.525731112119 0.794654472292
    outer loop
        vertex -0.333333333333 0.57735026919 0.7453559925
        vertex 0.666666666667 0.0 0.7453559925
        vertex 0.7453559925 0.57735026919 0.333333333333
    endloop
endfacet
facet normal 0.303530999103 0.525731112119 0.794654472292
    outer loop
        vertex -0.333333333333 0.57735026919 0.7453559925
        vertex 0.7453559925 0.57735026919 0.333333333333
        vertex 0.12732200375 0.934172358963 0.333333333333
    endloop
endfacet
facet normal -0.607061998207 -2.91839392718e-17 0.794654472292
    outer loop
        vertex -0.333333333333 -0.57735026919 0.7453559925
        vertex 0.0 0.0 1.0
        vertex -0.333333333333 0.57735026919 0.7453559925
    endloop
endfacet
facet normal -0.607061998207 -2.91839392718e-17 0.794654472292
    outer loop
        vertex -0.333333333333 -0.57735026919 0.7453559925
        vertex -0.333333333333 0.57735026919 0.7453559925
        vertex -0.87267799625 0.356822089773 0.333333333333
    endloop
endfacet
facet normal -0.607061998207 0.0 0.794654472292
    outer loop
        vertex -0.333333333333 -0.57735026919 0.7453559925
        vertex -0.87267799625 0.356822089773 0.333333333333
        vertex -0.87267799625 -0.356822089773 0.333333333333
    endloop
endfacet
facet normal 0.303530999103 -0.525731112119 0.794654472292
    outer loop
        vertex 0.666666666667 0.0 0.7453559925
        vertex 0.0 0.0 1.0
        vertex -0.333333333333 -0.57735026919 0.7453559925
    endloop
endfacet
facet normal 0.303530999103 -0.525731112119 0.794654472292
    outer loop
        vertex 0.666666666667 0.0 0.7453559925
        vertex -0.333333333333 -0.57735026919 0.7453559925
        vertex 0.12732200375 -0.934172358963 0.333333333333
    endloop
endfacet
facet normal 0.303530999103 -0.525731112119 0.794654472292
    outer loop
        vertex 0.666666666667 0.0 0.7453559925
        vertex 0.12732200375 -0.934172358963 0.333333333333
        vertex 0.7453559925 -0.57735026919 0.333333333333
    endloop
endfacet
facet normal 0.982246946377 0.0 0.187592474085
    outer loop
        vertex 0.7453559925 0.57735026919 0.333333333333
        vertex 0.666666666667 0.0 0.7453559925
        vertex 0.7453559925 -0.57735026919 0.333333333333
    endloop
endfacet
facet normal 0.982246946377 0.0 0.187592474085
    outer loop
        vertex 0.7453559925 0.57735026919 0.333333333333
        vertex 0.7453559925 -0.57735026919 0.333333333333
        vertex 0.87267799625 -0.356822089773 -0.333333333333
    endloop
endfacet
facet normal 0.982246946377 0.0 0.187592474085
    outer loop
        vertex 0.7453559925 0.57735026919 0.333333333333
        vertex 0.87267799625 -0.356822089773 -0.333333333333
        vertex 0.87267799625 0.356822089773 -0.333333333333
    endloop
endfacet
facet normal -0.491123473188 0.850650808352 0.187592474085
    outer loop
        vertex -0.87267799625 0.356822089773 0.333333333333
        vertex -0.333333333333 0.57735026919 0.7453559925
        vertex 0.12732200375 0.934172358963 0.333333333333
    endloop
endfacet
facet normal -0.491123473188 0.850650808352 0.187592474085
    outer loop
        vertex -0.87267799625 0.356822089773 0.333333333333
        vertex 0.12732200375 0.934172358963 0.333333333333
        vertex -0.12732200375 0.934172358963 -0.333333333333
    endloop
endfacet
facet normal -0.491123473188 0.850650808352 0.187592474085
    outer loop
        vertex -0.87267799625 0.356822089773 0.333333333333
        vertex -0.12732200375 0.934172358963 -0.333333333333
        vertex -0.7453559925 0.57735026919 -0.333333333333
    endloop
endfacet
facet normal -0.491123473188 -0.850650808352 0.187592474085
    outer loop
        vertex 0.12732200375 -0.934172358963 0.333333333333
        vertex -0.333333333333 -0.57735026919 0.7453559925
        vertex -0.87267799625 -0.356822089773 0.333333333333
    endloop
endfacet
facet normal -0.491123473188 -0.850650808352 0.187592474085
    outer loop
        vertex 0.12732200375 -0.934172358963 0.333333333333
        vertex -0.87267799625 -0.356822089773 0.333333333333
        vertex -0.7453559925 -0.57735026919 -0.333333333333
    endloop
endfacet
facet normal -0.491123473188 -0.850650808352 0.187592474085
    outer loop
        vertex 0.12732200375 -0.934172358963 0.333333333333
        vertex -0.7453559925 -0.57735026919 -0.333333333333
        vertex -0.12732200375 -0.934172358963 -0.333333333333
    endloop
endfacet
facet normal -0.303530999103 -0.525731112119 -0.794654472292
    outer loop
        vertex -0.0 -0.0 -1.0
        vertex 0.333333333333 -0.57735026919 -0.7453559925
        vertex -0.12732200375 -0.934172358963 -0.333333333333
    endloop
endfacet
facet normal -0.303530999103 -0.525731112119 -0.794654472292
    outer loop
        vertex -0.0 -0.0 -1.0
        vertex -0.12732200375 -0.934172358963 -0.333333333333
        vertex -0.7453559925 -0.57735026919 -0.333333333333
    endloop
endfacet
facet normal -0.303530999103 -0.525731112119 -0.794654472292
    outer loop
        vertex -0.0 -0.0 -1.0
        vertex -0.7453559925 -0.57735026919 -0.333333333333
        vertex -0.666666666667 -0.0 -0.7453559925
    endloop
endfacet
facet normal 0.607061998207 0.0 -0.794654472292
    outer loop
        vertex -0.0 -0.0 -1.0
        vertex 0.333333333333 0.57735026919 -0.7453559925
        vertex 0.87267799625 0.356822089773 -0.333333333333
    endloop
endfacet
facet normal 0.607061998207 0.0 -0.794654472292
    outer loop
        vertex -0.0 -0.0 -1.0
        vertex 0.87267799625 0.356822089773 -0.333333333333
        vertex 0.87267799625 -0.356822089773 -0.333333333333
    endloop
endfacet
facet normal 0.607061998207 5.73034087044e-17 -0.794654472292
    outer loop
        vertex -0.0 -0.0 -1.0
        vertex 0.87267799625 -0.356822089773 -0.333333333333
        vertex 0.333333333333 -0.57735026919 -0.7453559925
    endloop
endfacet
facet normal -0.303530999103 0.525731112119 -0.794654472292
    outer loop
        vertex -0.0 -0.0 -1.0
        vertex -0.666666666667 -0.0 -0.7453559925
        vertex -0.7453559925 0.57735026919 -0.333333333333
    endloop
endfacet
facet normal -0.303530999103 0.525731112119 -0.794654472292
    outer loop
        vertex -0.0 -0.0 -1.0
        vertex -0.7453559925 0.57735026919 -0.333333333333
        vertex -0.12732200375 0.934172358963 -0.333333333333
    endloop
endfacet
facet normal -0.303530999103 0.525731112119 -0.794654472292
    outer loop
        vertex -0.0 -0.0 -1.0
        vertex -0.12732200375 0.934172358963 -0.333333333333
        vertex 0.333333333333 0.57735026919 -0.7453559925
    endloop
endfacet
facet normal -0.982246946377 1.14606817409e-16 -0.187592474085
    outer loop
        vertex -0.666666666667 -0.0 -0.7453559925
        vertex -0.7453559925 -0.57735026919 -0.333333333333
        vertex -0.87267799625 -0.356822089773 0.333333333333
    endloop
endfacet
facet normal -0.982246946377 0.0 -0.187592474085
    outer loop
        vertex -0.666666666667 -0.0 -0.7453559925
        vertex -0.87267799625 -0.356822089773 0.333333333333
        vertex -0.87267799625 0.356822089773 0.333333333333
    endloop
endfacet
facet normal -0.982246946377 -1.14606817409e-16 -0.187592474085
    outer loop
        vertex -0.666666666667 -0.0 -0.7453559925
        vertex -0.87267799625 0.356822089773 0.333333333333
        vertex -0.7453559925 0.57735026919 -0.333333333333
    endloop
endfacet
facet normal 0.491123473188 -0.850650808352 -0.187592474085
    outer loop
        vertex 0.333333333333 -0.57735026919 -0.7453559925
        vertex 0.87267799625 -0.356822089773 -0.333333333333
        vertex 0.7453559925 -0.57735026919 0.333333333333
    endloop
endfacet
facet normal 0.491123473188 -0.850650808352 -0.187592474085
    outer loop
        vertex 0.333333333333 -0.57735026919 -0.7453559925
        vertex 0.7453559925 -0.57735026919 0.333333333333
        vertex 0.12732200375 -0.934172358963 0.333333333333
    endloop
endfacet
facet normal 0.491123473188 -0.850650808352 -0.187592474085
    outer loop
        vertex 0.333333333333 -0.57735026919 -0.7453559925
        vertex 0.12732200375 -0.934172358963 0.333333333333
        vertex -0.12732200375 -0.934172358963 -0.333333333333
    endloop
endfacet
facet normal 0.491123473188 0.850650808352 -0.187592474085
    outer loop
        vertex 0.333333333333 0.57735026919 -0.7453559925
        vertex -0.12732200375 0.934172358963 -0.333333333333
        vertex 0.12732200375 0.934172358963 0.333333333333
    endloop
endfacet
facet normal 0.491123473188 0.850650808352 -0.187592474085
    outer loop
        vertex 0.333333333333 0.57735026919 -0.7453559925
        vertex 0.12732200375 0.934172358963 0.333333333333
        vertex 0.7453559925 0.57735026919 0.333333333333
    endloop
endfacet
facet normal 0.491123473188 0.850650808352 -0.187592474085
    outer loop
        vertex 0.333333333333 0.57735026919 -0.7453559925
        vertex 0.7453559925 0.57735026919 0.333333333333
        vertex 0.87267799625 0.356822089773 -0.333333333333
    endloop
endfacet
endsolid