solid surface
facet normal 0.303530999103 0.525731112119 0.794654472292
    outer loop
        vertex -0.333333333333 0.57735026919 0.7453559925
        vertex 0.0 0.0 1.0
        vertex 0.666666666667 0.0 0.7453559925
    endloop
endfacet
facet normal 0.303530999103 0.525731112119 0.794654472292
    outer loop
        vertex -0.333333333333 0.57735026919 0.7453559925
        vertex 0.666666666667 0.0 0.7453559925
        vertex 0.7453559925 0.57735026919 0.333333333333
    endloop
endfacet
facet normal 0.303530999103 0.525731112119 0.794654472292
    outer loop
        vertex -0.333333333333 0.57735026919 0.7453559925
        vertex 0.7453559925 0.57735026919 0.333333333333
        vertex 0.12732200375 0.934172358963 0.333333333333
    endloop
endfacet
facet normal -0.607061998207 -2.91839392718e-17 0.794654472292
    outer loop
        vertex -0.333333333333 -0.57735026919 0.7453559925
        vertex 0.0 0.0 1.0
        vertex -0.333333333333 0.57735026919 0.7453559925
    endloop
endfacet
facet normal -0.607061998207 -2.91839392718e-17 0.794654472292
    outer loop
        vertex -0.333333333333 -0.57735026919 0.7453559925
        vertex -0.333333333333 0.57735026919 0.7453559925
        vertex -0.87267799625 0.356822089773 0.333333333333
    endloop
endfacet
facet normal -0.607061998207 0.0 0.794654472292
    outer loop
        vertex -0.333333333333 -0.57735026919 0.7453559925
        vertex -0.87267799625 0.356822089773 0.333333333333
        vertex -0.87267799625 -0.356822089773 0.333333333333
    endloop
endfacet
facet normal 0.303530999103 -0.525731112119 0.794654472292
    outer loop
        vertex 0.666666666667 0.0 0.7453559925
        vertex 0.0 0.0 1.0
        vertex -0.333333333333 -0.57735026919 0.7453559925
    endloop
endfacet
facet normal 0.303530999103 -0.525731112119 0.794654472292
    outer loop
        vertex 0.666666666667 0.0 0.7453559925
        vertex -0.333333333333 -0.57735026919 0.7453559925
        vertex 0.12732200375 -0.934172358963 0.333333333333
    endloop
endfacet
facet normal 0.303530999103 -0.525731112119 0.794654472292
    outer loop
        vertex 0.666666666667 0.0 0.7453559925
        vertex 0.12732200375 -0.934172358963 0.333333333333
        vertex 0.7453559925 -0.57735026919 0.333333333333
    endloop
endfacet
facet normal 0.982246946377 0.0 0.187592474085
    outer loop
        vertex 0.7453559925 0.57735026919 0.333333333333
        vertex 0.666666666667 0.0 0.7453559925
        vertex 0.7453559925 -0.57735026919 0.333333333333
    endloop
endfacet
facet normal 0.982246946377 0.0 0.187592474085
    outer loop
        vertex 0.7453559925 0.57735026919 0.333333333333
        vertex 0.7453559925 -0.57735026919 0.333333333333
        vertex 0.87267799625 -0.356822089773 -0.333333333333
    endloop
endfacet
facet normal 0.982246946377 0.0 0.187592474085
    outer loop
        vertex 0.7453559925 0.57735026919 0.333333333333
        vertex 0.87267799625 -0.356822089773 -0.333333333333
        vertex 0.87267799625 0.356822089773 -0.333333333333
    endloop
endfacet
facet normal -0.491123473188 0.850650808352 0.187592474085
    outer loop
        vertex -0.87267799625 0.356822089773 0.333333333333
        vertex -0.333333333333 0.57735026919 0.7453559925
        vertex 0.12732200375 0.934172358963 0.333333333333
    endloop
endfacet
facet normal -0.491123473188 0.850650808352 0.187592474085
    outer loop
        vertex -0.87267799625 0.356822089773 0.333333333333
        vertex 0.12732200375 0.934172358963 0.333333333333
        vertex -0.12732200375 0.934172358963 -0.333333333333
    endloop
endfacet
facet normal -0.491123473188 0.850650808352 0.187592474085
    outer loop
        vertex -0.87267799625 0.356822089773 0.333333333333
        vertex -0.12732200375 0.934172358963 -0.333333333333
        vertex -0.7453559925 0.57735026919 -0.333333333333
    endloop
endfacet
facet normal -0.491123473188 -0.850650808352 0.187592474085
    outer loop
        vertex 0.12732200375 -0.934172358963 0.333333333333
        vertex -0.333333333333 -0.57735026919 0.7453559925
        vertex -0.87267799625 -0.356822089773 0.333333333333
    endloop
endfacet
facet normal -0.491123473188 -0.850650808352 0.187592474085
    outer loop
        vertex 0.12732200375 -0.934172358963 0.333333333333
        vertex -0.87267799625 -0.356822089773 0.333333333333
        vertex -0.7453559925 -0.57735026919 -0.333333333333
    endloop
endfacet
facet normal -0.491123473188 -0.850650808352 0.187592474085
    outer loop
        vertex 0.12732200375 -0.934172358963 0.333333333333
        vertex -0.7453559925 -0.57735026919 -0.333333333333
        vertex -0.12732200375 -0.934172358963 -0.333333333333
    endloop
endfacet
facet normal -0.303530999103 -0.525731112119 -0.794654472292
    outer loop
        vertex -0.0 -0.0 -1.0
        vertex 0.333333333333 -0.57735026919 -0.7453559925
        vertex -0.12732200375 -0.934172358963 -0.333333333333
    endloop
endfacet
facet normal -0.303530999103 -0.525731112119 -0.794654472292
    outer loop
        vertex -0.0 -0.0 -1.0
        vertex -0.12732200375 -0.934172358963 -0.333333333333
        vertex -0.7453559925 -0.57735026919 -0.333333333333
    endloop
endfacet
facet normal -0.303530999103 -0.525731112119 -0.794654472292
    outer loop
        vertex -0.0 -0.0 -1.0
        vertex -0.7453559925 -0.57735026919 -0.333333333333
        vertex -0.666666666667 -0.0 -0.7453559925
    endloop
endfacet
facet normal 0.607061998207 0.0 -0.794654472292
    outer loop
        vertex -0.0 -0.0 -1.0
        vertex 0.333333333333 0.57735026919 -0.7453559925
        vertex 0.87267799625 0.356822089773 -0.333333333333
    endloop
endfacet
facet normal 0.607061998207 0.0 -0.794654472292
    outer loop
        vertex -0.0 -0.0 -1.0
        vertex 0.87267799625 0.356822089773 -0.333333333333
        vertex 0.87267799625 -0.356822089773 -0.333333333333
    endloop
endfacet
facet normal 0.607061998207 5.73034087044e-17 -0.794654472292
    outer loop
        vertex -0.0 -0.0 -1.0
        vertex 0.87267799625 -0.356822089773 -0.333333333333
        vertex 0.333333333333 -0.57735026919 -0.7453559925
    endloop
endfacet
facet normal -0.303530999103 0.525731112119 -0.794654472292
    outer loop
        vertex -0.0 -0.0 -1.0
        vertex -0.666666666667 -0.0 -0.7453559925
        vertex -0.7453559925 0.57735026919 -0.333333333333
    endloop
endfacet
facet normal -0.303530999103 0.525731112119 -0.794654472292
    outer loop
        vertex -0.0 -0.0 -1.0
        vertex -0.7453559925 0.57735026919 -0.333333333333
        vertex -0.12732200375 0.934172358963 -0.333333333333
    endloop
endfacet
facet normal -0.303530999103 0.525731112119 -0.794654472292
    outer loop
        vertex -0.0 -0.0 -1.0
        vertex -0.12732200375 0.934172358963 -0.333333333333
        vertex 0.333333333333 0.57735026919 -0.7453559925
    endloop
endfacet
facet normal -0.982246946377 1.14606817409e-16 -0.187592474085
    outer loop
        vertex -0.666666666667 -0.0 -0.7453559925
        vertex -0.7453559925 -0.57735026919 -0.333333333333
        vertex -0.87267799625 -0.356822089773 0.333333333333
    endloop
endfacet
facet normal -0.982246946377 0.0 -0.187592474085
    outer loop
        vertex -0.666666666667 -0.0 -0.7453559925
        vertex -0.87267799625 -0.356822089773 0.333333333333
        vertex -0.87267799625 0.356822089773 0.333333333333
    endloop
endfacet
facet normal -0.982246946377 -1.14606817409e-16 -0.187592474085
    outer loop
        vertex -0.666666666667 -0.0 -0.7453559925
        vertex -0.87267799625 0.356822089773 0.333333333333
        vertex -0.7453559925 0.57735026919 -0.333333333333
    endloop
endfacet
facet normal 0.491123473188 -0.850650808352 -0.187592474085
    outer loop
        vertex 0.333333333333 -0.57735026919 -0.7453559925
        vertex 0.87267799625 -0.356822089773 -0.333333333333
        vertex 0.7453559925 -0.57735026919 0.333333333333
    endloop
endfacet
facet normal 0.491123473188 -0.850650808352 -0.187592474085
    outer loop
        vertex 0.333333333333 -0.57735026919 -0.7453559925
        vertex 0.7453559925 -0.57735026919 0.333333333333
        vertex 0.12732200375 -0.934172358963 0.333333333333
    endloop
endfacet
facet normal 0.491123473188 -0.850650808352 -0.187592474085
    outer loop
        vertex 0.333333333333 -0.57735026919 -0.7453559925
        vertex 0.12732200375 -0.934172358963 0.333333333333
        vertex -0.12732200375 -0.934172358963 -0.333333333333
    endloop
endfacet
facet normal 0.491123473188 0.850650808352 -0.187592474085
    outer loop
        vertex 0.333333333333 0.57735026919 -0.7453559925
        vertex -0.12732200375 0.934172358963 -0.333333333333
        vertex 0.12732200375 0.934172358963 0.333333333333
    endloop
endfacet
facet normal 0.491123473188 0.850650808352 -0.187592474085
    outer loop
        vertex 0.333333333333 0.57735026919 -0.7453559925
        vertex 0.12732200375 0.934172358963 0.333333333333
        vertex 0.7453559925 0.57735026919 0.333333333333
    endloop
endfacet
facet normal 0.491123473188 0.850650808352 -0.187592474085
    outer loop
        vertex 0.333333333333 0.57735026919 -0.7453559925
        vertex 0.7453559925 0.57735026919 0.333333333333
        vertex 0.87267799625 0.356822089773 -0.333333333333
    endloop
endfacet
endsolid surface
