solid minkowski
  facet normal 0.0 -7200000.0 0.0
    outer loop
      vertex 0.0 0.0 0.0
      vertex 1000.0 0.0 0.0
      vertex 0.0 0.0 7200.0
    endloop
  endfacet
  facet normal 0.0 -7200000.0 0.0
    outer loop
      vertex 0.0 0.0 7200.0
      vertex 1000.0 0.0 0.0
      vertex 1000.0 0.0 7200.0
    endloop
  endfacet
  facet normal 7200000.0 -0.0 0.0
    outer loop
      vertex 1000.0 0.0 0.0
      vertex 1000.0 1000.0 0.0
      vertex 1000.0 0.0 7200.0
    endloop
  endfacet
  facet normal 7200000.0 -0.0 0.0
    outer loop
      vertex 1000.0 0.0 7200.0
      vertex 1000.0 1000.0 0.0
      vertex 1000.0 1000.0 7200.0
    endloop
  endfacet
  facet normal 0.0 7200000.0 -0.0
    outer loop
      vertex 1000.0 1000.0 0.0
      vertex 0.0 1000.0 0.0
      vertex 1000.0 1000.0 7200.0
    endloop
  endfacet
  facet normal 0.0 7200000.0 0.0
    outer loop
      vertex 1000.0 1000.0 7200.0
      vertex 0.0 1000.0 0.0
      vertex 0.0 1000.0 7200.0
    endloop
  endfacet
  facet normal -7200000.0 -0.0 0.0
    outer loop
      vertex 0.0 1000.0 0.0
      vertex 0.0 0.0 0.0
      vertex 0.0 1000.0 7200.0
    endloop
  endfacet
  facet normal -7200000.0 -0.0 0.0
    outer loop
      vertex 0.0 1000.0 7200.0
      vertex 0.0 0.0 0.0
      vertex 0.0 0.0 7200.0
    endloop
  endfacet
  facet normal 6000.0 -9000.0 0.0
    outer loop
      vertex 600.0 690.0 0.0
      vertex 690.0 750.0 0.0
      vertex 600.0 690.0 100.0
    endloop
  endfacet
  facet normal 6000.0 -9000.0 0.0
    outer loop
      vertex 600.0 690.0 100.0
      vertex 690.0 750.0 0.0
      vertex 690.0 750.0 100.0
    endloop
  endfacet
  facet normal 30000.0 -30000.0 0.0
    outer loop
      vertex 690.0 750.0 0.0
      vertex 990.0 1050.0 0.0
      vertex 690.0 750.0 100.0
    endloop
  endfacet
  facet normal 32500.513225182112 -27271.168660322623 15688.03369457848
    outer loop
      vertex 690.0 750.0 100.0
      vertex 990.0 1050.0 0.0
      vertex 962.7116866032262 1075.0051322518211 100.0
    endloop
  endfacet
  facet normal 19000.0 -10000.0 7685.292770569132
    outer loop
      vertex 990.0 1050.0 0.0
      vertex 1090.0 1240.0 0.0
      vertex 962.7116866032262 1075.0051322518211 100.0
    endloop
  endfacet
  facet normal 19000.0 -9999.999999999989 7685.292770569151
    outer loop
      vertex 962.7116866032262 1075.0051322518211 100.0
      vertex 1090.0 1240.0 0.0
      vertex 1062.711686603226 1265.0051322518211 100.0
    endloop
  endfacet
  facet normal 20000.0 10000.0 2957.149454172668
    outer loop
      vertex 1090.0 1240.0 0.0
      vertex 990.0 1440.0 0.0
      vertex 1062.711686603226 1265.0051322518211 100.0
    endloop
  endfacet
  facet normal 19052.336534358325 11705.061835870605 6629.982248069755
    outer loop
      vertex 1062.711686603226 1265.0051322518211 100.0
      vertex 990.0 1440.0 0.0
      vertex 945.66106824452 1455.5284975954044 100.0
    endloop
  endfacet
  facet normal -25000.0 19000.0 -14035.147481996819
    outer loop
      vertex 990.0 1440.0 0.0
      vertex 800.0 1190.0 0.0
      vertex 945.66106824452 1455.5284975954044 100.0
    endloop
  endfacet
  facet normal -25000.0 19000.0 -14035.147481996813
    outer loop
      vertex 945.66106824452 1455.5284975954044 100.0
      vertex 800.0 1190.0 0.0
      vertex 755.66106824452 1205.5284975954044 100.0
    endloop
  endfacet
  facet normal -50000.0 20000.0 -25275.165396820856
    outer loop
      vertex 800.0 1190.0 0.0
      vertex 600.0 690.0 0.0
      vertex 755.66106824452 1205.5284975954044 100.0
    endloop
  endfacet
  facet normal -51552.84975954043 15566.106824452003 0.0
    outer loop
      vertex 755.66106824452 1205.5284975954044 100.0
      vertex 600.0 690.0 0.0
      vertex 600.0 690.0 100.0
    endloop
  endfacet
  facet normal 6000.0 -9000.0 0.0
    outer loop
      vertex 600.0 690.0 100.0
      vertex 690.0 750.0 100.0
      vertex 600.0 690.0 200.0
    endloop
  endfacet
  facet normal 6000.0 -9000.0 0.0
    outer loop
      vertex 600.0 690.0 200.0
      vertex 690.0 750.0 100.0
      vertex 690.0 750.0 200.0
    endloop
  endfacet
  facet normal 32500.513225182112 -27271.168660322623 0.0
    outer loop
      vertex 690.0 750.0 100.0
      vertex 962.7116866032262 1075.0051322518211 100.0
      vertex 690.0 750.0 200.0
    endloop
  endfacet
  facet normal 34753.67792037414 -24334.787260358324 15688.033694578451
    outer loop
      vertex 690.0 750.0 200.0
      vertex 962.7116866032262 1075.0051322518211 100.0
      vertex 933.3478726035833 1097.5367792037414 200.0
    endloop
  endfacet
  facet normal 19000.0 -9999.999999999989 7832.289355124186
    outer loop
      vertex 962.7116866032262 1075.0051322518211 100.0
      vertex 1062.711686603226 1265.0051322518211 100.0
      vertex 933.3478726035833 1097.5367792037414 200.0
    endloop
  endfacet
  facet normal 19000.0 -10000.0 7832.289355124165
    outer loop
      vertex 933.3478726035833 1097.5367792037414 200.0
      vertex 1062.711686603226 1265.0051322518211 100.0
      vertex 1033.3478726035833 1287.5367792037414 200.0
    endloop
  endfacet
  facet normal 19052.336534358325 11705.061835870605 2957.1494541726556
    outer loop
      vertex 1062.711686603226 1265.0051322518211 100.0
      vertex 945.66106824452 1455.5284975954044 100.0
      vertex 1033.3478726035833 1287.5367792037414 200.0
    endloop
  endfacet
  facet normal 17959.67328357485 13321.041083460681 6629.982248069773
    outer loop
      vertex 1033.3478726035833 1287.5367792037414 200.0
      vertex 945.66106824452 1455.5284975954044 100.0
      vertex 900.1374617689764 1467.13351203949 200.0
    endloop
  endfacet
  facet normal -25000.0 19000.0 -13585.854363262155
    outer loop
      vertex 945.66106824452 1455.5284975954044 100.0
      vertex 755.66106824452 1205.5284975954044 100.0
      vertex 900.1374617689764 1467.13351203949 200.0
    endloop
  endfacet
  facet normal -25000.0 19000.0 -13585.854363262159
    outer loop
      vertex 900.1374617689764 1467.13351203949 200.0
      vertex 755.66106824452 1205.5284975954044 100.0
      vertex 710.1374617689764 1217.13351203949 200.0
    endloop
  endfacet
  facet normal -51552.84975954043 15566.106824452003 -25275.165396820856
    outer loop
      vertex 755.66106824452 1205.5284975954044 100.0
      vertex 600.0 690.0 100.0
      vertex 710.1374617689764 1217.13351203949 200.0
    endloop
  endfacet
  facet normal -52713.351203948994 11013.746176897643 0.0
    outer loop
      vertex 710.1374617689764 1217.13351203949 200.0
      vertex 600.0 690.0 100.0
      vertex 600.0 690.0 200.0
    endloop
  endfacet
  facet normal 6000.0 -9000.0 0.0
    outer loop
      vertex 600.0 690.0 200.0
      vertex 690.0 750.0 200.0
      vertex 600.0 690.0 300.0
    endloop
  endfacet
  facet normal 6000.0 -9000.0 0.0
    outer loop
      vertex 600.0 690.0 300.0
      vertex 690.0 750.0 200.0
      vertex 690.0 750.0 300.0
    endloop
  endfacet
  facet normal 34753.67792037414 -24334.787260358324 0.0
    outer loop
      vertex 690.0 750.0 200.0
      vertex 933.3478726035833 1097.5367792037414 200.0
      vertex 690.0 750.0 300.0
    endloop
  endfacet
  facet normal 36742.34614174768 -21213.203435596428 15688.03369457851
    outer loop
      vertex 690.0 750.0 300.0
      vertex 933.3478726035833 1097.5367792037414 200.0
      vertex 902.1320343559643 1117.4234614174768 300.0
    endloop
  endfacet
  facet normal 19000.0 -10000.0 7919.677488421149
    outer loop
      vertex 933.3478726035833 1097.5367792037414 200.0
      vertex 1033.3478726035833 1287.5367792037414 200.0
      vertex 902.1320343559643 1117.4234614174768 300.0
    endloop
  endfacet
  facet normal 19000.0 -10000.0 7919.677488421148
    outer loop
      vertex 902.1320343559643 1117.4234614174768 300.0
      vertex 1033.3478726035833 1287.5367792037414 200.0
      vertex 1002.1320343559643 1307.4234614174768 300.0
    endloop
  endfacet
  facet normal 17959.67328357485 13321.041083460681 2957.1494541726056
    outer loop
      vertex 1033.3478726035833 1287.5367792037414 200.0
      vertex 900.1374617689764 1467.13351203949 200.0
      vertex 1002.1320343559643 1307.4234614174768 300.0
    endloop
  endfacet
  facet normal 16730.326074756158 14835.639164941096 6629.982248069708
    outer loop
      vertex 1002.1320343559643 1307.4234614174768 300.0
      vertex 900.1374617689764 1467.13351203949 200.0
      vertex 853.7756427065533 1474.7267221650384 300.0
    endloop
  endfacet
  facet normal -25000.0 19000.0 -13033.164689459993
    outer loop
      vertex 900.1374617689764 1467.13351203949 200.0
      vertex 710.1374617689764 1217.13351203949 200.0
      vertex 853.7756427065533 1474.7267221650384 300.0
    endloop
  endfacet
  facet normal -25000.0 19000.0 -13033.16468945999
    outer loop
      vertex 853.7756427065533 1474.7267221650384 300.0
      vertex 710.1374617689764 1217.13351203949 200.0
      vertex 663.7756427065533 1224.7267221650384 300.0
    endloop
  endfacet
  facet normal -52713.351203948994 11013.746176897643 -25275.16539682088
    outer loop
      vertex 710.1374617689764 1217.13351203949 200.0
      vertex 600.0 690.0 200.0
      vertex 663.7756427065533 1224.7267221650384 300.0
    endloop
  endfacet
  facet normal -53472.67221650384 6377.56427065533 0.0
    outer loop
      vertex 663.7756427065533 1224.7267221650384 300.0
      vertex 600.0 690.0 200.0
      vertex 600.0 690.0 300.0
    endloop
  endfacet
  facet normal 6000.0 -9000.0 0.0
    outer loop
      vertex 600.0 690.0 300.0
      vertex 690.0 750.0 300.0
      vertex 600.0 690.0 400.0
    endloop
  endfacet
  facet normal 6000.0 -9000.0 0.0
    outer loop
      vertex 600.0 690.0 400.0
      vertex 690.0 750.0 300.0
      vertex 690.0 750.0 400.0
    endloop
  endfacet
  facet normal 36742.34614174768 -21213.203435596428 0.0
    outer loop
      vertex 690.0 750.0 300.0
      vertex 902.1320343559643 1117.4234614174768 300.0
      vertex 690.0 750.0 400.0
    endloop
  endfacet
  facet normal 19000.0 -10000.0 3562.7403858855323
    outer loop
      vertex 690.0 750.0 400.0
      vertex 902.1320343559643 1117.4234614174768 300.0
      vertex 790.0 940.0 400.0
    endloop
  endfacet
  facet normal 19000.0 -10000.0 3562.7403858855323
    outer loop
      vertex 902.1320343559643 1117.4234614174768 300.0
      vertex 1002.1320343559643 1307.4234614174768 300.0
      vertex 790.0 940.0 400.0
    endloop
  endfacet
  facet normal 38451.38292334732 -17930.174323807194 15688.033694578451
    outer loop
      vertex 790.0 940.0 400.0
      vertex 1002.1320343559643 1307.4234614174768 300.0
      vertex 969.3017432380719 1324.5138292334732 400.0
    endloop
  endfacet
  facet normal 16730.326074756158 14835.639164941096 2957.1494541726465
    outer loop
      vertex 1002.1320343559643 1307.4234614174768 300.0
      vertex 853.7756427065533 1474.7267221650384 300.0
      vertex 969.3017432380719 1324.5138292334732 400.0
    endloop
  endfacet
  facet normal 15373.650982461459 16237.329074372463 6629.982248069788
    outer loop
      vertex 969.3017432380719 1324.5138292334732 400.0
      vertex 853.7756427065533 1474.7267221650384 300.0
      vertex 806.9284524943473 1478.2503390580878 400.0
    endloop
  endfacet
  facet normal -25000.0 19000.0 -12381.28476273088
    outer loop
      vertex 853.7756427065533 1474.7267221650384 300.0
      vertex 663.7756427065533 1224.7267221650384 300.0
      vertex 806.9284524943473 1478.2503390580878 400.0
    endloop
  endfacet
  facet normal -25000.0 19000.0 -12381.28476273088
    outer loop
      vertex 806.9284524943473 1478.2503390580878 400.0
      vertex 663.7756427065533 1224.7267221650384 300.0
      vertex 616.9284524943473 1228.2503390580878 400.0
    endloop
  endfacet
  facet normal -53472.67221650384 6377.56427065533 -25275.16539682087
    outer loop
      vertex 663.7756427065533 1224.7267221650384 300.0
      vertex 600.0 690.0 300.0
      vertex 616.9284524943473 1228.2503390580878 400.0
    endloop
  endfacet
  facet normal -53825.03390580878 1692.8452494347312 0.0
    outer loop
      vertex 616.9284524943473 1228.2503390580878 400.0
      vertex 600.0 690.0 300.0
      vertex 600.0 690.0 400.0
    endloop
  endfacet
  facet normal 6000.0 -9000.0 0.0
    outer loop
      vertex 600.0 690.0 400.0
      vertex 690.0 750.0 400.0
      vertex 600.0 690.0 500.0
    endloop
  endfacet
  facet normal 6000.0 -9000.0 0.0
    outer loop
      vertex 600.0 690.0 500.0
      vertex 690.0 750.0 400.0
      vertex 690.0 750.0 500.0
    endloop
  endfacet
  facet normal 19000.0 -10000.0 0.0
    outer loop
      vertex 690.0 750.0 400.0
      vertex 790.0 940.0 400.0
      vertex 690.0 750.0 500.0
    endloop
  endfacet
  facet normal 19000.0 -10000.0 0.0
    outer loop
      vertex 690.0 750.0 500.0
      vertex 790.0 940.0 400.0
      vertex 790.0 940.0 500.0
    endloop
  endfacet
  facet normal 38451.38292334732 -17930.174323807194 0.0
    outer loop
      vertex 790.0 940.0 400.0
      vertex 969.3017432380719 1324.5138292334732 400.0
      vertex 790.0 940.0 500.0
    endloop
  endfacet
  facet normal 39867.78146332049 -14510.685758878515 15688.033694578495
    outer loop
      vertex 790.0 940.0 500.0
      vertex 969.3017432380719 1324.5138292334732 400.0
      vertex 935.1068575887851 1338.677814633205 500.0
    endloop
  endfacet
  facet normal 15373.650982461459 16237.329074372463 2957.149454172645
    outer loop
      vertex 969.3017432380719 1324.5138292334732 400.0
      vertex 806.9284524943473 1478.2503390580878 400.0
      vertex 935.1068575887851 1338.677814633205 500.0
    endloop
  endfacet
  facet normal 13899.973123326003 17515.443105180486 6629.982248069711
    outer loop
      vertex 935.1068575887851 1338.677814633205 500.0
      vertex 806.9284524943473 1478.2503390580878 400.0
      vertex 759.9524265369803 1477.677545866465 500.0
    endloop
  endfacet
  facet normal -25000.0 19000.0 -11635.175782933415
    outer loop
      vertex 806.9284524943473 1478.2503390580878 400.0
      vertex 616.9284524943473 1228.2503390580878 400.0
      vertex 759.9524265369803 1477.677545866465 500.0
    endloop
  endfacet
  facet normal -25000.0 19000.0 -11635.175782933416
    outer loop
      vertex 759.9524265369803 1477.677545866465 500.0
      vertex 616.9284524943473 1228.2503390580878 400.0
      vertex 569.9524265369803 1227.677545866465 500.0
    endloop
  endfacet
  facet normal -53825.03390580878 1692.8452494347312 -25275.16539682086
    outer loop
      vertex 616.9284524943473 1228.2503390580878 400.0
      vertex 600.0 690.0 400.0
      vertex 569.9524265369803 1227.677545866465 500.0
    endloop
  endfacet
  facet normal -53767.75458664649 -3004.7573463019717 0.0
    outer loop
      vertex 569.9524265369803 1227.677545866465 500.0
      vertex 600.0 690.0 400.0
      vertex 600.0 690.0 500.0
    endloop
  endfacet
  facet normal 6000.0 -9000.0 0.0
    outer loop
      vertex 600.0 690.0 500.0
      vertex 690.0 750.0 500.0
      vertex 600.0 690.0 600.0
    endloop
  endfacet
  facet normal 6000.0 -9000.0 0.0
    outer loop
      vertex 600.0 690.0 600.0
      vertex 690.0 750.0 500.0
      vertex 690.0 750.0 600.0
    endloop
  endfacet
  facet normal 19000.0 -10000.0 0.0
    outer loop
      vertex 690.0 750.0 500.0
      vertex 790.0 940.0 500.0
      vertex 690.0 750.0 600.0
    endloop
  endfacet
  facet normal 19000.0 -10000.0 0.0
    outer loop
      vertex 690.0 750.0 600.0
      vertex 790.0 940.0 500.0
      vertex 790.0 940.0 600.0
    endloop
  endfacet
  facet normal 39867.78146332049 -14510.685758878515 0.0
    outer loop
      vertex 790.0 940.0 500.0
      vertex 935.1068575887851 1338.677814633205 500.0
      vertex 790.0 940.0 600.0
    endloop
  endfacet
  facet normal 40980.76211353316 -10980.762113533161 15688.033694578451
    outer loop
      vertex 790.0 940.0 600.0
      vertex 935.1068575887851 1338.677814633205 500.0
      vertex 899.8076211353316 1349.8076211353316 600.0
    endloop
  endfacet
  facet normal 13899.973123326003 17515.443105180486 2957.149454172655
    outer loop
      vertex 935.1068575887851 1338.677814633205 500.0
      vertex 759.9524265369803 1477.677545866465 500.0
      vertex 899.8076211353316 1349.8076211353316 600.0
    endloop
  endfacet
  facet normal 12320.50807568878 18660.25403784438 6629.98224806974
    outer loop
      vertex 899.8076211353316 1349.8076211353316 600.0
      vertex 759.9524265369803 1477.677545866465 500.0
      vertex 713.2050807568878 1473.0127018922194 600.0
    endloop
  endfacet
  facet normal -25000.0 19000.0 -10800.516089916471
    outer loop
      vertex 759.9524265369803 1477.677545866465 500.0
      vertex 569.9524265369803 1227.677545866465 500.0
      vertex 713.2050807568878 1473.0127018922194 600.0
    endloop
  endfacet
  facet normal -25000.0 19000.0 -10800.51608991647
    outer loop
      vertex 713.2050807568878 1473.0127018922194 600.0
      vertex 569.9524265369803 1227.677545866465 500.0
      vertex 523.2050807568878 1223.0127018922194 600.0
    endloop
  endfacet
  facet normal -53767.75458664649 -3004.7573463019717 -25275.165396820834
    outer loop
      vertex 569.9524265369803 1227.677545866465 500.0
      vertex 600.0 690.0 500.0
      vertex 523.2050807568878 1223.0127018922194 600.0
    endloop
  endfacet
  facet normal -53301.27018922194 -7679.491924311219 0.0
    outer loop
      vertex 523.2050807568878 1223.0127018922194 600.0
      vertex 600.0 690.0 500.0
      vertex 600.0 690.0 600.0
    endloop
  endfacet
  facet normal 6000.0 -9000.0 0.0
    outer loop
      vertex 600.0 690.0 600.0
      vertex 690.0 750.0 600.0
      vertex 600.0 690.0 700.0
    endloop
  endfacet
  facet normal 6000.0 -9000.0 0.0
    outer loop
      vertex 600.0 690.0 700.0
      vertex 690.0 750.0 600.0
      vertex 690.0 750.0 700.0
    endloop
  endfacet
  facet normal 19000.0 -10000.0 0.0
    outer loop
      vertex 690.0 750.0 600.0
      vertex 790.0 940.0 600.0
      vertex 690.0 750.0 700.0
    endloop
  endfacet
  facet normal 19000.0 -10000.0 0.0
    outer loop
      vertex 690.0 750.0 700.0
      vertex 790.0 940.0 600.0
      vertex 790.0 940.0 700.0
    endloop
  endfacet
  facet normal 40980.76211353316 -10980.762113533161 0.0
    outer loop
      vertex 790.0 940.0 600.0
      vertex 899.8076211353316 1349.8076211353316 600.0
      vertex 790.0 940.0 700.0
    endloop
  endfacet
  facet normal 41781.85441920113 -7367.268238138377 15688.033694578447
    outer loop
      vertex 790.0 940.0 700.0
      vertex 899.8076211353316 1349.8076211353316 600.0
      vertex 863.6726823813838 1357.8185441920114 700.0
    endloop
  endfacet
  facet normal 12320.50807568878 18660.25403784438 2957.1494541726474
    outer loop
      vertex 899.8076211353316 1349.8076211353316 600.0
      vertex 713.2050807568878 1473.0127018922194 600.0
      vertex 863.6726823813838 1357.8185441920114 700.0
    endloop
  endfacet
  facet normal 10647.276522269385 19663.049169910846 6629.982248069766
    outer loop
      vertex 863.6726823813838 1357.8185441920114 700.0
      vertex 713.2050807568878 1473.0127018922194 600.0
      vertex 667.0421906822753 1464.2913094147052 700.0
    endloop
  endfacet
  facet normal -25000.0 19000.0 -9883.657947925429
    outer loop
      vertex 713.2050807568878 1473.0127018922194 600.0
      vertex 523.2050807568878 1223.0127018922194 600.0
      vertex 667.0421906822753 1464.2913094147052 700.0
    endloop
  endfacet
  facet normal -25000.0 18999.999999999993 -9883.657947925414
    outer loop
      vertex 667.0421906822753 1464.2913094147052 700.0
      vertex 523.2050807568878 1223.0127018922194 600.0
      vertex 477.04219068227536 1214.2913094147052 700.0
    endloop
  endfacet
  facet normal -53301.27018922194 -7679.491924311219 -25275.16539682089
    outer loop
      vertex 523.2050807568878 1223.0127018922194 600.0
      vertex 600.0 690.0 600.0
      vertex 477.04219068227536 1214.2913094147052 700.0
    endloop
  endfacet
  facet normal -52429.13094147052 -12295.780931772464 0.0
    outer loop
      vertex 477.04219068227536 1214.2913094147052 700.0
      vertex 600.0 690.0 600.0
      vertex 600.0 690.0 700.0
    endloop
  endfacet
  facet normal 6000.0 -9000.0 0.0
    outer loop
      vertex 600.0 690.0 700.0
      vertex 690.0 750.0 700.0
      vertex 600.0 690.0 800.0
    endloop
  endfacet
  facet normal 6000.0 -9000.0 0.0
    outer loop
      vertex 600.0 690.0 800.0
      vertex 690.0 750.0 700.0
      vertex 690.0 750.0 800.0
    endloop
  endfacet
  facet normal 19000.0 -10000.0 0.0
    outer loop
      vertex 690.0 750.0 700.0
      vertex 790.0 940.0 700.0
      vertex 690.0 750.0 800.0
    endloop
  endfacet
  facet normal 19000.0 -10000.0 0.0
    outer loop
      vertex 690.0 750.0 800.0
      vertex 790.0 940.0 700.0
      vertex 790.0 940.0 800.0
    endloop
  endfacet
  facet normal 41781.85441920113 -7367.268238138377 0.0
    outer loop
      vertex 790.0 940.0 700.0
      vertex 863.6726823813838 1357.8185441920114 700.0
      vertex 790.0 940.0 800.0
    endloop
  endfacet
  facet normal 42264.96158416553 -3697.7050029731686 15688.033694578471
    outer loop
      vertex 790.0 940.0 800.0
      vertex 863.6726823813838 1357.8185441920114 700.0
      vertex 826.9770500297317 1362.6496158416553 800.0
    endloop
  endfacet
  facet normal 10647.276522269385 19663.049169910846 2957.1494541726292
    outer loop
      vertex 863.6726823813838 1357.8185441920114 700.0
      vertex 667.0421906822753 1464.2913094147052 700.0
      vertex 826.9770500297317 1362.6496158416553 800.0
    endloop
  endfacet
  facet normal 8893.012765514162 20516.196624920565 6629.982248069751
    outer loop
      vertex 826.9770500297317 1362.6496158416553 800.0
      vertex 667.0421906822753 1464.2913094147052 700.0
      vertex 621.815083780526 1451.579743496797 800.0
    endloop
  endfacet
  facet normal -25000.0 18999.999999999993 -8891.579201034747
    outer loop
      vertex 667.0421906822753 1464.2913094147052 700.0
      vertex 477.04219068227536 1214.2913094147052 700.0
      vertex 621.815083780526 1451.579743496797 800.0
    endloop
  endfacet
  facet normal -25000.0 19000.0 -8891.579201034758
    outer loop
      vertex 621.815083780526 1451.579743496797 800.0
      vertex 477.04219068227536 1214.2913094147052 700.0
      vertex 431.81508378052604 1201.579743496797 800.0
    endloop
  endfacet
  facet normal -52429.13094147052 -12295.780931772464 -25275.165396820856
    outer loop
      vertex 477.04219068227536 1214.2913094147052 700.0
      vertex 600.0 690.0 700.0
      vertex 431.81508378052604 1201.579743496797 800.0
    endloop
  endfacet
  facet normal -51157.974349679695 -16818.491621947396 0.0
    outer loop
      vertex 431.81508378052604 1201.579743496797 800.0
      vertex 600.0 690.0 700.0
      vertex 600.0 690.0 800.0
    endloop
  endfacet
  facet normal 6000.0 -9000.0 0.0
    outer loop
      vertex 600.0 690.0 800.0
      vertex 690.0 750.0 800.0
      vertex 600.0 690.0 900.0
    endloop
  endfacet
  facet normal 6000.0 -9000.0 0.0
    outer loop
      vertex 600.0 690.0 900.0
      vertex 690.0 750.0 800.0
      vertex 690.0 750.0 900.0
    endloop
  endfacet
  facet normal 19000.0 -10000.0 0.0
    outer loop
      vertex 690.0 750.0 800.0
      vertex 790.0 940.0 800.0
      vertex 690.0 750.0 900.0
    endloop
  endfacet
  facet normal 19000.0 -10000.0 0.0
    outer loop
      vertex 690.0 750.0 900.0
      vertex 790.0 940.0 800.0
      vertex 790.0 940.0 900.0
    endloop
  endfacet
  facet normal 42264.96158416553 -3697.7050029731686 0.0
    outer loop
      vertex 790.0 940.0 800.0
      vertex 826.9770500297317 1362.6496158416553 800.0
      vertex 790.0 940.0 900.0
    endloop
  endfacet
  facet normal 42426.406871192856 -0.0 15688.033694578502
    outer loop
      vertex 790.0 940.0 900.0
      vertex 826.9770500297317 1362.6496158416553 800.0
      vertex 790.0 1364.2640687119285 900.0
    endloop
  endfacet
  facet normal 8893.012765514162 20516.196624920565 2957.1494541726684
    outer loop
      vertex 826.9770500297317 1362.6496158416553 800.0
      vertex 621.815083780526 1451.579743496797 800.0
      vertex 790.0 1364.2640687119285 900.0
    endloop
  endfacet
  facet normal 7071.067811865464 21213.203435596413 6629.982248069775
    outer loop
      vertex 790.0 1364.2640687119285 900.0
      vertex 621.815083780526 1451.579743496797 800.0
      vertex 577.8679656440358 1434.9747468305832 900.0
    endloop
  endfacet
  facet normal -25000.0 19000.0 -7831.830167541932
    outer loop
      vertex 621.815083780526 1451.579743496797 800.0
      vertex 431.81508378052604 1201.579743496797 800.0
      vertex 577.8679656440358 1434.9747468305832 900.0
    endloop
  endfacet
  facet normal -25000.0 19000.000000000007 -7831.83016754195
    outer loop
      vertex 577.8679656440358 1434.9747468305832 900.0
      vertex 431.81508378052604 1201.579743496797 800.0
      vertex 387.8679656440358 1184.9747468305832 900.0
    endloop
  endfacet
  facet normal -51157.974349679695 -16818.491621947396 -25275.16539682092
    outer loop
      vertex 431.81508378052604 1201.579743496797 800.0
      vertex 600.0 690.0 800.0
      vertex 387.8679656440358 1184.9747468305832 900.0
    endloop
  endfacet
  facet normal -49497.47468305832 -21213.20343559642 0.0
    outer loop
      vertex 387.8679656440358 1184.9747468305832 900.0
      vertex 600.0 690.0 800.0
      vertex 600.0 690.0 900.0
    endloop
  endfacet
  facet normal 6000.0 -9000.0 0.0
    outer loop
      vertex 600.0 690.0 900.0
      vertex 690.0 750.0 900.0
      vertex 600.0 690.0 1000.0
    endloop
  endfacet
  facet normal 6000.0 -9000.0 0.0
    outer loop
      vertex 600.0 690.0 1000.0
      vertex 690.0 750.0 900.0
      vertex 690.0 750.0 1000.0
    endloop
  endfacet
  facet normal 19000.0 -10000.0 0.0
    outer loop
      vertex 690.0 750.0 900.0
      vertex 790.0 940.0 900.0
      vertex 690.0 750.0 1000.0
    endloop
  endfacet
  facet normal 19000.0 -10000.0 0.0
    outer loop
      vertex 690.0 750.0 1000.0
      vertex 790.0 940.0 900.0
      vertex 790.0 940.0 1000.0
    endloop
  endfacet
  facet normal 42426.406871192856 -0.0 0.0
    outer loop
      vertex 790.0 940.0 900.0
      vertex 790.0 1364.2640687119285 900.0
      vertex 790.0 940.0 1000.0
    endloop
  endfacet
  facet normal 42264.96158416553 3697.705002973157 15688.033694578455
    outer loop
      vertex 790.0 940.0 1000.0
      vertex 790.0 1364.2640687119285 900.0
      vertex 753.0229499702684 1362.6496158416553 1000.0
    endloop
  endfacet
  facet normal 7071.067811865464 21213.203435596413 2957.149454172623
    outer loop
      vertex 790.0 1364.2640687119285 900.0
      vertex 577.8679656440358 1434.9747468305832 900.0
      vertex 753.0229499702684 1362.6496158416553 1000.0
    endloop
  endfacet
  facet normal 5195.307762541006 21748.764959244952 6629.982248069713
    outer loop
      vertex 753.0229499702684 1362.6496158416553 1000.0
      vertex 577.8679656440358 1434.9747468305832 900.0
      vertex 535.5353003778189 1414.6026934670654 1000.0
    endloop
  endfacet
  facet normal -25000.0 19000.000000000007 -6712.476177485856
    outer loop
      vertex 577.8679656440358 1434.9747468305832 900.0
      vertex 387.8679656440358 1184.9747468305832 900.0
      vertex 535.5353003778189 1414.6026934670654 1000.0
    endloop
  endfacet
  facet normal -25000.0 19000.0 -6712.476177485842
    outer loop
      vertex 535.5353003778189 1414.6026934670654 1000.0
      vertex 387.8679656440358 1184.9747468305832 900.0
      vertex 345.5353003778189 1164.6026934670654 1000.0
    endloop
  endfacet
  facet normal -49497.47468305832 -21213.20343559642 -25275.16539682083
    outer loop
      vertex 387.8679656440358 1184.9747468305832 900.0
      vertex 600.0 690.0 900.0
      vertex 345.5353003778189 1164.6026934670654 1000.0
    endloop
  endfacet
  facet normal -47460.26934670654 -25446.46996221811 0.0
    outer loop
      vertex 345.5353003778189 1164.6026934670654 1000.0
      vertex 600.0 690.0 900.0
      vertex 600.0 690.0 1000.0
    endloop
  endfacet
  facet normal 6000.0 -9000.0 0.0
    outer loop
      vertex 600.0 690.0 1000.0
      vertex 690.0 750.0 1000.0
      vertex 600.0 690.0 1100.0
    endloop
  endfacet
  facet normal 6000.0 -9000.0 0.0
    outer loop
      vertex 600.0 690.0 1100.0
      vertex 690.0 750.0 1000.0
      vertex 690.0 750.0 1100.0
    endloop
  endfacet
  facet normal 19000.0 -10000.0 0.0
    outer loop
      vertex 690.0 750.0 1000.0
      vertex 790.0 940.0 1000.0
      vertex 690.0 750.0 1100.0
    endloop
  endfacet
  facet normal 19000.0 -10000.0 0.0
    outer loop
      vertex 690.0 750.0 1100.0
      vertex 790.0 940.0 1000.0
      vertex 790.0 940.0 1100.0
    endloop
  endfacet
  facet normal 42264.96158416553 3697.705002973157 -0.0
    outer loop
      vertex 790.0 940.0 1000.0
      vertex 753.0229499702684 1362.6496158416553 1000.0
      vertex 790.0 940.0 1100.0
    endloop
  endfacet
  facet normal 41781.85441920113 7367.268238138377 15688.03369457852
    outer loop
      vertex 790.0 940.0 1100.0
      vertex 753.0229499702684 1362.6496158416553 1000.0
      vertex 716.3273176186162 1357.8185441920114 1100.0
    endloop
  endfacet
  facet normal 5195.307762541006 21748.764959244952 2957.1494541726747
    outer loop
      vertex 753.0229499702684 1362.6496158416553 1000.0
      vertex 535.5353003778189 1414.6026934670654 1000.0
      vertex 716.3273176186162 1357.8185441920114 1100.0
    endloop
  endfacet
  facet normal 3280.0082841310086 22118.80524929029 6629.982248069766
    outer loop
      vertex 716.3273176186162 1357.8185441920114 1100.0
      vertex 535.5353003778189 1414.6026934670654 1000.0
      vertex 495.13926512571334 1390.6186270333214 1100.0
    endloop
  endfacet
  facet normal -25000.0 19000.0 -5542.036190615042
    outer loop
      vertex 535.5353003778189 1414.6026934670654 1000.0
      vertex 345.5353003778189 1164.6026934670654 1000.0
      vertex 495.13926512571334 1390.6186270333214 1100.0
    endloop
  endfacet
  facet normal -25000.0 19000.0 -5542.036190615043
    outer loop
      vertex 495.13926512571334 1390.6186270333214 1100.0
      vertex 345.5353003778189 1164.6026934670654 1000.0
      vertex 305.13926512571334 1140.6186270333214 1100.0
    endloop
  endfacet
  facet normal -47460.26934670654 -25446.46996221811 -25275.1653968209
    outer loop
      vertex 345.5353003778189 1164.6026934670654 1000.0
      vertex 600.0 690.0 1000.0
      vertex 305.13926512571334 1140.6186270333214 1100.0
    endloop
  endfacet
  facet normal -45061.862703332146 -29486.073487428665 0.0
    outer loop
      vertex 305.13926512571334 1140.6186270333214 1100.0
      vertex 600.0 690.0 1000.0
      vertex 600.0 690.0 1100.0
    endloop
  endfacet
  facet normal 6000.0 -9000.0 0.0
    outer loop
      vertex 600.0 690.0 1100.0
      vertex 690.0 750.0 1100.0
      vertex 600.0 690.0 1200.0
    endloop
  endfacet
  facet normal 6000.0 -9000.0 0.0
    outer loop
      vertex 600.0 690.0 1200.0
      vertex 690.0 750.0 1100.0
      vertex 690.0 750.0 1200.0
    endloop
  endfacet
  facet normal 19000.0 -10000.0 0.0
    outer loop
      vertex 690.0 750.0 1100.0
      vertex 790.0 940.0 1100.0
      vertex 690.0 750.0 1200.0
    endloop
  endfacet
  facet normal 19000.0 -10000.0 0.0
    outer loop
      vertex 690.0 750.0 1200.0
      vertex 790.0 940.0 1100.0
      vertex 790.0 940.0 1200.0
    endloop
  endfacet
  facet normal 41781.85441920113 7367.268238138377 -0.0
    outer loop
      vertex 790.0 940.0 1100.0
      vertex 716.3273176186162 1357.8185441920114 1100.0
      vertex 790.0 940.0 1200.0
    endloop
  endfacet
  facet normal 40980.76211353316 10980.762113533161 15688.033694578447
    outer loop
      vertex 790.0 940.0 1200.0
      vertex 716.3273176186162 1357.8185441920114 1100.0
      vertex 680.1923788646684 1349.8076211353316 1200.0
    endloop
  endfacet
  facet normal 3280.0082841310086 22118.80524929029 2957.1494541726433
    outer loop
      vertex 716.3273176186162 1357.8185441920114 1100.0
      vertex 495.13926512571334 1390.6186270333214 1100.0
      vertex 680.1923788646684 1349.8076211353316 1200.0
    endloop
  endfacet
  facet normal 1339.7459621556209 22320.50807568877 6629.982248069744
    outer loop
      vertex 680.1923788646684 1349.8076211353316 1200.0
      vertex 495.13926512571334 1390.6186270333214 1100.0
      vertex 456.9872981077807 1363.2050807568878 1200.0
    endloop
  endfacet
  facet normal -25000.0 19000.0 -4329.417961960768
    outer loop
      vertex 495.13926512571334 1390.6186270333214 1100.0
      vertex 305.13926512571334 1140.6186270333214 1100.0
      vertex 456.9872981077807 1363.2050807568878 1200.0
    endloop
  endfacet
  facet normal -25000.0 19000.0 -4329.417961960768
    outer loop
      vertex 456.9872981077807 1363.2050807568878 1200.0
      vertex 305.13926512571334 1140.6186270333214 1100.0
      vertex 266.9872981077807 1113.2050807568878 1200.0
    endloop
  endfacet
  facet normal -45061.862703332146 -29486.073487428665 -25275.165396820852
    outer loop
      vertex 305.13926512571334 1140.6186270333214 1100.0
      vertex 600.0 690.0 1100.0
      vertex 266.9872981077807 1113.2050807568878 1200.0
    endloop
  endfacet
  facet normal -42320.508075688784 -33301.27018922193 0.0
    outer loop
      vertex 266.9872981077807 1113.2050807568878 1200.0
      vertex 600.0 690.0 1100.0
      vertex 600.0 690.0 1200.0
    endloop
  endfacet
  facet normal 6000.0 -9000.0 0.0
    outer loop
      vertex 600.0 690.0 1200.0
      vertex 690.0 750.0 1200.0
      vertex 600.0 690.0 1300.0
    endloop
  endfacet
  facet normal 6000.0 -9000.0 0.0
    outer loop
      vertex 600.0 690.0 1300.0
      vertex 690.0 750.0 1200.0
      vertex 690.0 750.0 1300.0
    endloop
  endfacet
  facet normal 19000.0 -10000.0 0.0
    outer loop
      vertex 690.0 750.0 1200.0
      vertex 790.0 940.0 1200.0
      vertex 690.0 750.0 1300.0
    endloop
  endfacet
  facet normal 19000.0 -10000.0 0.0
    outer loop
      vertex 690.0 750.0 1300.0
      vertex 790.0 940.0 1200.0
      vertex 790.0 940.0 1300.0
    endloop
  endfacet
  facet normal 40980.76211353316 10980.762113533161 -0.0
    outer loop
      vertex 790.0 940.0 1200.0
      vertex 680.1923788646684 1349.8076211353316 1200.0
      vertex 790.0 940.0 1300.0
    endloop
  endfacet
  facet normal 39867.78146332049 14510.685758878526 15688.033694578502
    outer loop
      vertex 790.0 940.0 1300.0
      vertex 680.1923788646684 1349.8076211353316 1200.0
      vertex 644.8931424112147 1338.677814633205 1300.0
    endloop
  endfacet
  facet normal 1339.7459621556209 22320.50807568877 2957.149454172637
    outer loop
      vertex 680.1923788646684 1349.8076211353316 1200.0
      vertex 456.9872981077807 1363.2050807568878 1200.0
      vertex 644.8931424112147 1338.677814633205 1300.0
    endloop
  endfacet
  facet normal -610.7126355525224 22352.338358139987 6629.982248069773
    outer loop
      vertex 644.8931424112147 1338.677814633205 1300.0
      vertex 456.9872981077807 1363.2050807568878 1200.0
      vertex 421.3697588298149 1332.5706882776797 1300.0
    endloop
  endfacet
  facet normal -25000.0 19000.0 -3083.8502484419078
    outer loop
      vertex 456.9872981077807 1363.2050807568878 1200.0
      vertex 266.9872981077807 1113.2050807568878 1200.0
      vertex 421.3697588298149 1332.5706882776797 1300.0
    endloop
  endfacet
  facet normal -25000.0 19000.0 -3083.8502484419078
    outer loop
      vertex 421.3697588298149 1332.5706882776797 1300.0
      vertex 266.9872981077807 1113.2050807568878 1200.0
      vertex 231.36975882981488 1082.5706882776797 1300.0
    endloop
  endfacet
  facet normal -42320.508075688784 -33301.27018922193 -25275.165396820936
    outer loop
      vertex 266.9872981077807 1113.2050807568878 1200.0
      vertex 600.0 690.0 1200.0
      vertex 231.36975882981488 1082.5706882776797 1300.0
    endloop
  endfacet
  facet normal -39257.068827767966 -36863.02411701851 0.0
    outer loop
      vertex 231.36975882981488 1082.5706882776797 1300.0
      vertex 600.0 690.0 1200.0
      vertex 600.0 690.0 1300.0
    endloop
  endfacet
  facet normal 6000.0 -9000.0 0.0
    outer loop
      vertex 600.0 690.0 1300.0
      vertex 690.0 750.0 1300.0
      vertex 600.0 690.0 1400.0
    endloop
  endfacet
  facet normal 6000.0 -9000.0 0.0
    outer loop
      vertex 600.0 690.0 1400.0
      vertex 690.0 750.0 1300.0
      vertex 690.0 750.0 1400.0
    endloop
  endfacet
  facet normal 19000.0 -10000.0 0.0
    outer loop
      vertex 690.0 750.0 1300.0
      vertex 790.0 940.0 1300.0
      vertex 690.0 750.0 1400.0
    endloop
  endfacet
  facet normal 19000.0 -10000.0 0.0
    outer loop
      vertex 690.0 750.0 1400.0
      vertex 790.0 940.0 1300.0
      vertex 790.0 940.0 1400.0
    endloop
  endfacet
  facet normal 39867.78146332049 14510.685758878526 -0.0
    outer loop
      vertex 790.0 940.0 1300.0
      vertex 644.8931424112147 1338.677814633205 1300.0
      vertex 790.0 940.0 1400.0
    endloop
  endfacet
  facet normal 38451.38292334732 17930.174323807183 15688.033694578407
    outer loop
      vertex 790.0 940.0 1400.0
      vertex 644.8931424112147 1338.677814633205 1300.0
      vertex 610.6982567619282 1324.5138292334732 1400.0
    endloop
  endfacet
  facet normal -610.7126355525224 22352.338358139987 2957.1494541726465
    outer loop
      vertex 644.8931424112147 1338.677814633205 1300.0
      vertex 421.3697588298149 1332.5706882776797 1300.0
      vertex 610.6982567619282 1324.5138292334732 1400.0
    endloop
  endfacet
  facet normal -2556.523341345701 22214.053848974858 6629.982248069717
    outer loop
      vertex 610.6982567619282 1324.5138292334732 1400.0
      vertex 421.3697588298149 1332.5706882776797 1300.0
      vertex 388.5577182721796 1298.9485958200162 1400.0
    endloop
  endfacet
  facet normal -25000.0 19000.0 -1814.8125724527563
    outer loop
      vertex 421.3697588298149 1332.5706882776797 1300.0
      vertex 231.36975882981488 1082.5706882776797 1300.0
      vertex 388.5577182721796 1298.9485958200162 1400.0
    endloop
  endfacet
  facet normal -25000.0 19000.0 -1814.8125724527563
    outer loop
      vertex 388.5577182721796 1298.9485958200162 1400.0
      vertex 231.36975882981488 1082.5706882776797 1300.0
      vertex 198.5577182721796 1048.9485958200162 1400.0
    endloop
  endfacet
  facet normal -39257.068827767966 -36863.02411701851 -25275.16539682077
    outer loop
      vertex 231.36975882981488 1082.5706882776797 1300.0
      vertex 600.0 690.0 1300.0
      vertex 198.5577182721796 1048.9485958200162 1400.0
    endloop
  endfacet
  facet normal -35894.85958200162 -40144.22817278204 0.0
    outer loop
      vertex 198.5577182721796 1048.9485958200162 1400.0
      vertex 600.0 690.0 1300.0
      vertex 600.0 690.0 1400.0
    endloop
  endfacet
  facet normal 6000.0 -9000.0 0.0
    outer loop
      vertex 600.0 690.0 1400.0
      vertex 690.0 750.0 1400.0
      vertex 600.0 690.0 1500.0
    endloop
  endfacet
  facet normal 6000.0 -9000.0 0.0
    outer loop
      vertex 600.0 690.0 1500.0
      vertex 690.0 750.0 1400.0
      vertex 690.0 750.0 1500.0
    endloop
  endfacet
  facet normal 19000.0 -10000.0 0.0
    outer loop
      vertex 690.0 750.0 1400.0
      vertex 790.0 940.0 1400.0
      vertex 690.0 750.0 1500.0
    endloop
  endfacet
  facet normal 19000.0 -10000.0 0.0
    outer loop
      vertex 690.0 750.0 1500.0
      vertex 790.0 940.0 1400.0
      vertex 790.0 940.0 1500.0
    endloop
  endfacet
  facet normal 38451.38292334732 17930.174323807183 -0.0
    outer loop
      vertex 790.0 940.0 1400.0
      vertex 610.6982567619282 1324.5138292334732 1400.0
      vertex 790.0 940.0 1500.0
    endloop
  endfacet
  facet normal 36742.34614174766 21213.20343559644 15688.033694578582
    outer loop
      vertex 790.0 940.0 1500.0
      vertex 610.6982567619282 1324.5138292334732 1400.0
      vertex 577.8679656440356 1307.4234614174766 1500.0
    endloop
  endfacet
  facet normal -2556.523341345701 22214.053848974858 2957.149454172689
    outer loop
      vertex 610.6982567619282 1324.5138292334732 1400.0
      vertex 388.5577182721796 1298.9485958200162 1400.0
      vertex 577.8679656440356 1307.4234614174766 1500.0
    endloop
  endfacet
  facet normal -4482.877360840257 21906.706976806567 6629.982248069785
    outer loop
      vertex 577.8679656440356 1307.4234614174766 1500.0
      vertex 388.5577182721796 1298.9485958200162 1400.0
      vertex 358.80089587596996 1262.594687809074 1500.0
    endloop
  endfacet
  facet normal -25000.0 19000.0 -531.9630769734003
    outer loop
      vertex 388.5577182721796 1298.9485958200162 1400.0
      vertex 198.5577182721796 1048.9485958200162 1400.0
      vertex 358.80089587596996 1262.594687809074 1500.0
    endloop
  endfacet
  facet normal -25000.0 19000.0 -531.9630769733994
    outer loop
      vertex 358.80089587596996 1262.594687809074 1500.0
      vertex 198.5577182721796 1048.9485958200162 1400.0
      vertex 168.80089587596996 1012.594687809074 1500.0
    endloop
  endfacet
  facet normal -35894.85958200162 -40144.22817278204 -25275.16539682098
    outer loop
      vertex 198.5577182721796 1048.9485958200162 1400.0
      vertex 600.0 690.0 1400.0
      vertex 168.80089587596996 1012.594687809074 1500.0
    endloop
  endfacet
  facet normal -32259.468780907402 -43119.910412403005 0.0
    outer loop
      vertex 168.80089587596996 1012.594687809074 1500.0
      vertex 600.0 690.0 1400.0
      vertex 600.0 690.0 1500.0
    endloop
  endfacet
  facet normal 6000.0 -9000.0 0.0
    outer loop
      vertex 600.0 690.0 1500.0
      vertex 690.0 750.0 1500.0
      vertex 600.0 690.0 1600.0
    endloop
  endfacet
  facet normal 6000.0 -9000.0 0.0
    outer loop
      vertex 600.0 690.0 1600.0
      vertex 690.0 750.0 1500.0
      vertex 690.0 750.0 1600.0
    endloop
  endfacet
  facet normal 19000.0 -10000.0 0.0
    outer loop
      vertex 690.0 750.0 1500.0
      vertex 790.0 940.0 1500.0
      vertex 690.0 750.0 1600.0
    endloop
  endfacet
  facet normal 19000.0 -10000.0 0.0
    outer loop
      vertex 690.0 750.0 1600.0
      vertex 790.0 940.0 1500.0
      vertex 790.0 940.0 1600.0
    endloop
  endfacet
  facet normal 36742.34614174766 21213.20343559644 -0.0
    outer loop
      vertex 790.0 940.0 1500.0
      vertex 577.8679656440356 1307.4234614174766 1500.0
      vertex 790.0 940.0 1600.0
    endloop
  endfacet
  facet normal 34753.67792037416 24334.787260358324 15688.033694578364
    outer loop
      vertex 790.0 940.0 1600.0
      vertex 577.8679656440356 1307.4234614174766 1500.0
      vertex 546.6521273964167 1287.5367792037416 1600.0
    endloop
  endfacet
  facet normal -4482.877360840257 21906.706976806567 2957.149454172606
    outer loop
      vertex 577.8679656440356 1307.4234614174766 1500.0
      vertex 358.80089587596996 1262.594687809074 1500.0
      vertex 546.6521273964167 1287.5367792037416 1600.0
    endloop
  endfacet
  facet normal -6375.113976783473 21432.63683691346 6629.98224806973
    outer loop
      vertex 546.6521273964167 1287.5367792037416 1600.0
      vertex 358.80089587596996 1262.594687809074 1500.0
      vertex 332.3257590272821 1223.785639435907 1600.0
    endloop
  endfacet
  facet normal -25000.0 19000.0 754.9349787297924
    outer loop
      vertex 358.80089587596996 1262.594687809074 1500.0
      vertex 168.80089587596996 1012.594687809074 1500.0
      vertex 332.3257590272821 1223.785639435907 1600.0
    endloop
  endfacet
  facet normal -25000.0 19000.0 754.9349787297906
    outer loop
      vertex 332.3257590272821 1223.785639435907 1600.0
      vertex 168.80089587596996 1012.594687809074 1500.0
      vertex 142.32575902728212 973.7856394359069 1600.0
    endloop
  endfacet
  facet normal -32259.468780907402 -43119.910412403005 -25275.16539682077
    outer loop
      vertex 168.80089587596996 1012.594687809074 1500.0
      vertex 600.0 690.0 1500.0
      vertex 142.32575902728212 973.7856394359069 1600.0
    endloop
  endfacet
  facet normal -28378.56394359069 -45767.42409727179 0.0
    outer loop
      vertex 142.32575902728212 973.7856394359069 1600.0
      vertex 600.0 690.0 1500.0
      vertex 600.0 690.0 1600.0
    endloop
  endfacet
  facet normal 6000.0 -9000.0 0.0
    outer loop
      vertex 600.0 690.0 1600.0
      vertex 690.0 750.0 1600.0
      vertex 600.0 690.0 1700.0
    endloop
  endfacet
  facet normal 6000.0 -9000.0 0.0
    outer loop
      vertex 600.0 690.0 1700.0
      vertex 690.0 750.0 1600.0
      vertex 690.0 750.0 1700.0
    endloop
  endfacet
  facet normal 19000.0 -10000.0 0.0
    outer loop
      vertex 690.0 750.0 1600.0
      vertex 790.0 940.0 1600.0
      vertex 690.0 750.0 1700.0
    endloop
  endfacet
  facet normal 19000.0 -10000.0 0.0
    outer loop
      vertex 690.0 750.0 1700.0
      vertex 790.0 940.0 1600.0
      vertex 790.0 940.0 1700.0
    endloop
  endfacet
  facet normal 34753.67792037416 24334.787260358324 -0.0
    outer loop
      vertex 790.0 940.0 1600.0
      vertex 546.6521273964167 1287.5367792037416 1600.0
      vertex 790.0 940.0 1700.0
    endloop
  endfacet
  facet normal 32500.513225182112 27271.168660322623 15688.03369457851
    outer loop
      vertex 790.0 940.0 1700.0
      vertex 546.6521273964167 1287.5367792037416 1600.0
      vertex 517.2883133967738 1265.0051322518211 1700.0
    endloop
  endfacet
  facet normal -6375.113976783473 21432.63683691346 2957.14945417266
    outer loop
      vertex 546.6521273964167 1287.5367792037416 1600.0
      vertex 332.3257590272821 1223.785639435907 1600.0
      vertex 517.2883133967738 1265.0051322518211 1700.0
    endloop
  endfacet
  facet normal -8218.832125964287 20795.451389311496 6629.982248069751
    outer loop
      vertex 517.2883133967738 1265.0051322518211 1700.0
      vertex 332.3257590272821 1223.785639435907 1600.0
      vertex 309.33379950365884 1182.8168109921783 1700.0
    endloop
  endfacet
  facet normal -25000.0 19000.0 2036.087523402619
    outer loop
      vertex 332.3257590272821 1223.785639435907 1600.0
      vertex 142.32575902728212 973.7856394359069 1600.0
      vertex 309.33379950365884 1182.8168109921783 1700.0
    endloop
  endfacet
  facet normal -25000.0 19000.0 2036.087523402617
    outer loop
      vertex 309.33379950365884 1182.8168109921783 1700.0
      vertex 142.32575902728212 973.7856394359069 1600.0
      vertex 119.33379950365884 932.8168109921783 1700.0
    endloop
  endfacet
  facet normal -28378.56394359069 -45767.42409727179 -25275.165396820914
    outer loop
      vertex 142.32575902728212 973.7856394359069 1600.0
      vertex 600.0 690.0 1600.0
      vertex 119.33379950365884 932.8168109921783 1700.0
    endloop
  endfacet
  facet normal -24281.681099217825 -48066.62004963412 0.0
    outer loop
      vertex 119.33379950365884 932.8168109921783 1700.0
      vertex 600.0 690.0 1600.0
      vertex 600.0 690.0 1700.0
    endloop
  endfacet
  facet normal 6000.0 -9000.0 0.0
    outer loop
      vertex 600.0 690.0 1700.0
      vertex 690.0 750.0 1700.0
      vertex 600.0 690.0 1800.0
    endloop
  endfacet
  facet normal 6000.0 -9000.0 0.0
    outer loop
      vertex 600.0 690.0 1800.0
      vertex 690.0 750.0 1700.0
      vertex 690.0 750.0 1800.0
    endloop
  endfacet
  facet normal 19000.0 -10000.0 0.0
    outer loop
      vertex 690.0 750.0 1700.0
      vertex 790.0 940.0 1700.0
      vertex 690.0 750.0 1800.0
    endloop
  endfacet
  facet normal 19000.0 -10000.0 0.0
    outer loop
      vertex 690.0 750.0 1800.0
      vertex 790.0 940.0 1700.0
      vertex 790.0 940.0 1800.0
    endloop
  endfacet
  facet normal 32500.513225182112 27271.168660322623 -0.0
    outer loop
      vertex 790.0 940.0 1700.0
      vertex 517.2883133967738 1265.0051322518211 1700.0
      vertex 790.0 940.0 1800.0
    endloop
  endfacet
  facet normal 30000.0 30000.0 15688.03369457848
    outer loop
      vertex 790.0 940.0 1800.0
      vertex 517.2883133967738 1265.0051322518211 1700.0
      vertex 490.0 1240.0 1800.0
    endloop
  endfacet
  facet normal -8218.832125964287 20795.451389311496 2957.1494541726524
    outer loop
      vertex 517.2883133967738 1265.0051322518211 1700.0
      vertex 309.33379950365884 1182.8168109921783 1700.0
      vertex 490.0 1240.0 1800.0
    endloop
  endfacet
  facet normal -10000.0 20000.0 6629.982248069768
    outer loop
      vertex 490.0 1240.0 1800.0
      vertex 309.33379950365884 1182.8168109921783 1700.0
      vertex 290.0 1140.0 1800.0
    endloop
  endfacet
  facet normal -25000.0 19000.0 3301.74421259916
    outer loop
      vertex 309.33379950365884 1182.8168109921783 1700.0
      vertex 119.33379950365884 932.8168109921783 1700.0
      vertex 290.0 1140.0 1800.0
    endloop
  endfacet
  facet normal -25000.0 19000.0 3301.7442125991583
    outer loop
      vertex 290.0 1140.0 1800.0
      vertex 119.33379950365884 932.8168109921783 1700.0
      vertex 100.0 890.0 1800.0
    endloop
  endfacet
  facet normal -24281.681099217825 -48066.62004963412 -25275.1653968209
    outer loop
      vertex 119.33379950365884 932.8168109921783 1700.0
      vertex 600.0 690.0 1700.0
      vertex 100.0 890.0 1800.0
    endloop
  endfacet
  facet normal -20000.0 -50000.0 0.0
    outer loop
      vertex 100.0 890.0 1800.0
      vertex 600.0 690.0 1700.0
      vertex 600.0 690.0 1800.0
    endloop
  endfacet
endsolid
