solid minkowski
  facet normal 0.0 -36000.0 0.0
    outer loop
      vertex 0.0 0.0 0.0
      vertex 100.0 0.0 0.0
      vertex 0.0 0.0 360.0
    endloop
  endfacet
  facet normal 0.0 -36000.0 0.0
    outer loop
      vertex 0.0 0.0 360.0
      vertex 100.0 0.0 0.0
      vertex 100.0 0.0 360.0
    endloop
  endfacet
  facet normal 36000.0 -0.0 0.0
    outer loop
      vertex 100.0 0.0 0.0
      vertex 100.0 100.0 0.0
      vertex 100.0 0.0 360.0
    endloop
  endfacet
  facet normal 36000.0 -0.0 0.0
    outer loop
      vertex 100.0 0.0 360.0
      vertex 100.0 100.0 0.0
      vertex 100.0 100.0 360.0
    endloop
  endfacet
  facet normal 0.0 36000.0 -0.0
    outer loop
      vertex 100.0 100.0 0.0
      vertex 0.0 100.0 0.0
      vertex 100.0 100.0 360.0
    endloop
  endfacet
  facet normal 0.0 36000.0 0.0
    outer loop
      vertex 100.0 100.0 360.0
      vertex 0.0 100.0 0.0
      vertex 0.0 100.0 360.0
    endloop
  endfacet
  facet normal -36000.0 -0.0 0.0
    outer loop
      vertex 0.0 100.0 0.0
      vertex 0.0 0.0 0.0
      vertex 0.0 100.0 360.0
    endloop
  endfacet
  facet normal -36000.0 -0.0 0.0
    outer loop
      vertex 0.0 100.0 360.0
      vertex 0.0 0.0 0.0
      vertex 0.0 0.0 360.0
    endloop
  endfacet
endsolid
