solid minkowski
  facet normal 0.0 -360000.0 0.0
    outer loop
      vertex 0.0 0.0 0.0
      vertex 1000.0 0.0 0.0
      vertex 0.0 0.0 360.0
    endloop
  endfacet
  facet normal 0.0 -360000.0 0.0
    outer loop
      vertex 0.0 0.0 360.0
      vertex 1000.0 0.0 0.0
      vertex 1000.0 0.0 360.0
    endloop
  endfacet
  facet normal 360000.0 -0.0 0.0
    outer loop
      vertex 1000.0 0.0 0.0
      vertex 1000.0 1000.0 0.0
      vertex 1000.0 0.0 360.0
    endloop
  endfacet
  facet normal 360000.0 -0.0 0.0
    outer loop
      vertex 1000.0 0.0 360.0
      vertex 1000.0 1000.0 0.0
      vertex 1000.0 1000.0 360.0
    endloop
  endfacet
  facet normal 0.0 360000.0 -0.0
    outer loop
      vertex 1000.0 1000.0 0.0
      vertex 0.0 1000.0 0.0
      vertex 1000.0 1000.0 360.0
    endloop
  endfacet
  facet normal 0.0 360000.0 0.0
    outer loop
      vertex 1000.0 1000.0 360.0
      vertex 0.0 1000.0 0.0
      vertex 0.0 1000.0 360.0
    endloop
  endfacet
  facet normal -360000.0 -0.0 0.0
    outer loop
      vertex 0.0 1000.0 0.0
      vertex 0.0 0.0 0.0
      vertex 0.0 1000.0 360.0
    endloop
  endfacet
  facet normal -360000.0 -0.0 0.0
    outer loop
      vertex 0.0 1000.0 360.0
      vertex 0.0 0.0 0.0
      vertex 0.0 0.0 360.0
    endloop
  endfacet
endsolid
